<svg width="739" height="520" xmlns="http://www.w3.org/2000/svg" xmlns:xlink="http://www.w3.org/1999/xlink" overflow="hidden"><defs><clipPath id="clip0"><rect x="0" y="0" width="739" height="520"/></clipPath></defs><g clip-path="url(#clip0)"><rect x="0" y="0" width="739" height="519.982" fill="#FFFFFF"/><path d="M111.5 470.483 111.5 14.4995" stroke="#B0B0B0" stroke-width="1.06644" stroke-linejoin="round" stroke-miterlimit="10" stroke-dasharray="0.639866 1.05578" stroke-opacity="0.901961" fill="none" fill-rule="evenodd"/><path d="M166.5 470.483 166.5 14.4995" stroke="#B0B0B0" stroke-width="1.06644" stroke-linejoin="round" stroke-miterlimit="10" stroke-dasharray="0.639866 1.05578" stroke-opacity="0.901961" fill="none" fill-rule="evenodd"/><path d="M221.5 470.483 221.5 14.4995" stroke="#B0B0B0" stroke-width="1.06644" stroke-linejoin="round" stroke-miterlimit="10" stroke-dasharray="0.639866 1.05578" stroke-opacity="0.901961" fill="none" fill-rule="evenodd"/><path d="M276.5 470.483 276.5 14.4995" stroke="#B0B0B0" stroke-width="1.06644" stroke-linejoin="round" stroke-miterlimit="10" stroke-dasharray="0.639866 1.05578" stroke-opacity="0.901961" fill="none" fill-rule="evenodd"/><path d="M331.5 470.483 331.5 14.4995" stroke="#B0B0B0" stroke-width="1.06644" stroke-linejoin="round" stroke-miterlimit="10" stroke-dasharray="0.639866 1.05578" stroke-opacity="0.901961" fill="none" fill-rule="evenodd"/><path d="M386.5 470.483 386.5 14.4995" stroke="#B0B0B0" stroke-width="1.06644" stroke-linejoin="round" stroke-miterlimit="10" stroke-dasharray="0.639866 1.05578" stroke-opacity="0.901961" fill="none" fill-rule="evenodd"/><path d="M441.5 470.483 441.5 14.4995" stroke="#B0B0B0" stroke-width="1.06644" stroke-linejoin="round" stroke-miterlimit="10" stroke-dasharray="0.639866 1.05578" stroke-opacity="0.901961" fill="none" fill-rule="evenodd"/><path d="M496.5 470.483 496.5 14.4995" stroke="#B0B0B0" stroke-width="1.06644" stroke-linejoin="round" stroke-miterlimit="10" stroke-dasharray="0.639866 1.05578" stroke-opacity="0.901961" fill="none" fill-rule="evenodd"/><path d="M552.5 470.483 552.5 14.4995" stroke="#B0B0B0" stroke-width="1.06644" stroke-linejoin="round" stroke-miterlimit="10" stroke-dasharray="0.639866 1.05578" stroke-opacity="0.901961" fill="none" fill-rule="evenodd"/><path d="M607.5 470.483 607.5 14.4995" stroke="#B0B0B0" stroke-width="1.06644" stroke-linejoin="round" stroke-miterlimit="10" stroke-dasharray="0.639866 1.05578" stroke-opacity="0.901961" fill="none" fill-rule="evenodd"/><path d="M662.5 470.483 662.5 14.4995" stroke="#B0B0B0" stroke-width="1.06644" stroke-linejoin="round" stroke-miterlimit="10" stroke-dasharray="0.639866 1.05578" stroke-opacity="0.901961" fill="none" fill-rule="evenodd"/><path d="M66.5 470.483 66.5 14.4995" stroke="#B0B0B0" stroke-width="1.06644" stroke-linejoin="round" stroke-miterlimit="10" stroke-dasharray="0.639866 1.05578" stroke-opacity="0.901961" fill="none" fill-rule="evenodd"/><path d="M77.5 470.483 77.5 14.4995" stroke="#B0B0B0" stroke-width="1.06644" stroke-linejoin="round" stroke-miterlimit="10" stroke-dasharray="0.639866 1.05578" stroke-opacity="0.901961" fill="none" fill-rule="evenodd"/><path d="M88.5 470.483 88.5 14.4995" stroke="#B0B0B0" stroke-width="1.06644" stroke-linejoin="round" stroke-miterlimit="10" stroke-dasharray="0.639866 1.05578" stroke-opacity="0.901961" fill="none" fill-rule="evenodd"/><path d="M100.5 470.483 100.5 14.4995" stroke="#B0B0B0" stroke-width="1.06644" stroke-linejoin="round" stroke-miterlimit="10" stroke-dasharray="0.639866 1.05578" stroke-opacity="0.901961" fill="none" fill-rule="evenodd"/><path d="M122.5 470.483 122.5 14.4995" stroke="#B0B0B0" stroke-width="1.06644" stroke-linejoin="round" stroke-miterlimit="10" stroke-dasharray="0.639866 1.05578" stroke-opacity="0.901961" fill="none" fill-rule="evenodd"/><path d="M133.5 470.483 133.5 14.4995" stroke="#B0B0B0" stroke-width="1.06644" stroke-linejoin="round" stroke-miterlimit="10" stroke-dasharray="0.639866 1.05578" stroke-opacity="0.901961" fill="none" fill-rule="evenodd"/><path d="M144.5 470.483 144.5 14.4995" stroke="#B0B0B0" stroke-width="1.06644" stroke-linejoin="round" stroke-miterlimit="10" stroke-dasharray="0.639866 1.05578" stroke-opacity="0.901961" fill="none" fill-rule="evenodd"/><path d="M155.5 470.483 155.5 14.4995" stroke="#B0B0B0" stroke-width="1.06644" stroke-linejoin="round" stroke-miterlimit="10" stroke-dasharray="0.639866 1.05578" stroke-opacity="0.901961" fill="none" fill-rule="evenodd"/><path d="M177.5 470.483 177.5 14.4995" stroke="#B0B0B0" stroke-width="1.06644" stroke-linejoin="round" stroke-miterlimit="10" stroke-dasharray="0.639866 1.05578" stroke-opacity="0.901961" fill="none" fill-rule="evenodd"/><path d="M188.5 470.483 188.5 14.4995" stroke="#B0B0B0" stroke-width="1.06644" stroke-linejoin="round" stroke-miterlimit="10" stroke-dasharray="0.639866 1.05578" stroke-opacity="0.901961" fill="none" fill-rule="evenodd"/><path d="M199.5 470.483 199.5 14.4995" stroke="#B0B0B0" stroke-width="1.06644" stroke-linejoin="round" stroke-miterlimit="10" stroke-dasharray="0.639866 1.05578" stroke-opacity="0.901961" fill="none" fill-rule="evenodd"/><path d="M210.5 470.483 210.5 14.4995" stroke="#B0B0B0" stroke-width="1.06644" stroke-linejoin="round" stroke-miterlimit="10" stroke-dasharray="0.639866 1.05578" stroke-opacity="0.901961" fill="none" fill-rule="evenodd"/><path d="M232.5 470.483 232.5 14.4995" stroke="#B0B0B0" stroke-width="1.06644" stroke-linejoin="round" stroke-miterlimit="10" stroke-dasharray="0.639866 1.05578" stroke-opacity="0.901961" fill="none" fill-rule="evenodd"/><path d="M243.5 470.483 243.5 14.4995" stroke="#B0B0B0" stroke-width="1.06644" stroke-linejoin="round" stroke-miterlimit="10" stroke-dasharray="0.639866 1.05578" stroke-opacity="0.901961" fill="none" fill-rule="evenodd"/><path d="M254.5 470.483 254.5 14.4995" stroke="#B0B0B0" stroke-width="1.06644" stroke-linejoin="round" stroke-miterlimit="10" stroke-dasharray="0.639866 1.05578" stroke-opacity="0.901961" fill="none" fill-rule="evenodd"/><path d="M265.5 470.483 265.5 14.4995" stroke="#B0B0B0" stroke-width="1.06644" stroke-linejoin="round" stroke-miterlimit="10" stroke-dasharray="0.639866 1.05578" stroke-opacity="0.901961" fill="none" fill-rule="evenodd"/><path d="M287.5 470.483 287.5 14.4995" stroke="#B0B0B0" stroke-width="1.06644" stroke-linejoin="round" stroke-miterlimit="10" stroke-dasharray="0.639866 1.05578" stroke-opacity="0.901961" fill="none" fill-rule="evenodd"/><path d="M298.5 470.483 298.5 14.4995" stroke="#B0B0B0" stroke-width="1.06644" stroke-linejoin="round" stroke-miterlimit="10" stroke-dasharray="0.639866 1.05578" stroke-opacity="0.901961" fill="none" fill-rule="evenodd"/><path d="M309.5 470.483 309.5 14.4995" stroke="#B0B0B0" stroke-width="1.06644" stroke-linejoin="round" stroke-miterlimit="10" stroke-dasharray="0.639866 1.05578" stroke-opacity="0.901961" fill="none" fill-rule="evenodd"/><path d="M320.5 470.483 320.5 14.4995" stroke="#B0B0B0" stroke-width="1.06644" stroke-linejoin="round" stroke-miterlimit="10" stroke-dasharray="0.639866 1.05578" stroke-opacity="0.901961" fill="none" fill-rule="evenodd"/><path d="M342.5 470.483 342.5 14.4995" stroke="#B0B0B0" stroke-width="1.06644" stroke-linejoin="round" stroke-miterlimit="10" stroke-dasharray="0.639866 1.05578" stroke-opacity="0.901961" fill="none" fill-rule="evenodd"/><path d="M353.5 470.483 353.5 14.4995" stroke="#B0B0B0" stroke-width="1.06644" stroke-linejoin="round" stroke-miterlimit="10" stroke-dasharray="0.639866 1.05578" stroke-opacity="0.901961" fill="none" fill-rule="evenodd"/><path d="M364.5 470.483 364.5 14.4995" stroke="#B0B0B0" stroke-width="1.06644" stroke-linejoin="round" stroke-miterlimit="10" stroke-dasharray="0.639866 1.05578" stroke-opacity="0.901961" fill="none" fill-rule="evenodd"/><path d="M375.5 470.483 375.5 14.4995" stroke="#B0B0B0" stroke-width="1.06644" stroke-linejoin="round" stroke-miterlimit="10" stroke-dasharray="0.639866 1.05578" stroke-opacity="0.901961" fill="none" fill-rule="evenodd"/><path d="M397.5 470.483 397.5 14.4995" stroke="#B0B0B0" stroke-width="1.06644" stroke-linejoin="round" stroke-miterlimit="10" stroke-dasharray="0.639866 1.05578" stroke-opacity="0.901961" fill="none" fill-rule="evenodd"/><path d="M408.5 470.483 408.5 14.4995" stroke="#B0B0B0" stroke-width="1.06644" stroke-linejoin="round" stroke-miterlimit="10" stroke-dasharray="0.639866 1.05578" stroke-opacity="0.901961" fill="none" fill-rule="evenodd"/><path d="M419.5 470.483 419.5 14.4995" stroke="#B0B0B0" stroke-width="1.06644" stroke-linejoin="round" stroke-miterlimit="10" stroke-dasharray="0.639866 1.05578" stroke-opacity="0.901961" fill="none" fill-rule="evenodd"/><path d="M430.5 470.483 430.5 14.4995" stroke="#B0B0B0" stroke-width="1.06644" stroke-linejoin="round" stroke-miterlimit="10" stroke-dasharray="0.639866 1.05578" stroke-opacity="0.901961" fill="none" fill-rule="evenodd"/><path d="M452.5 470.483 452.5 14.4995" stroke="#B0B0B0" stroke-width="1.06644" stroke-linejoin="round" stroke-miterlimit="10" stroke-dasharray="0.639866 1.05578" stroke-opacity="0.901961" fill="none" fill-rule="evenodd"/><path d="M463.5 470.483 463.5 14.4995" stroke="#B0B0B0" stroke-width="1.06644" stroke-linejoin="round" stroke-miterlimit="10" stroke-dasharray="0.639866 1.05578" stroke-opacity="0.901961" fill="none" fill-rule="evenodd"/><path d="M474.5 470.483 474.5 14.4995" stroke="#B0B0B0" stroke-width="1.06644" stroke-linejoin="round" stroke-miterlimit="10" stroke-dasharray="0.639866 1.05578" stroke-opacity="0.901961" fill="none" fill-rule="evenodd"/><path d="M485.5 470.483 485.5 14.4995" stroke="#B0B0B0" stroke-width="1.06644" stroke-linejoin="round" stroke-miterlimit="10" stroke-dasharray="0.639866 1.05578" stroke-opacity="0.901961" fill="none" fill-rule="evenodd"/><path d="M507.5 470.483 507.5 14.4995" stroke="#B0B0B0" stroke-width="1.06644" stroke-linejoin="round" stroke-miterlimit="10" stroke-dasharray="0.639866 1.05578" stroke-opacity="0.901961" fill="none" fill-rule="evenodd"/><path d="M518.5 470.483 518.5 14.4995" stroke="#B0B0B0" stroke-width="1.06644" stroke-linejoin="round" stroke-miterlimit="10" stroke-dasharray="0.639866 1.05578" stroke-opacity="0.901961" fill="none" fill-rule="evenodd"/><path d="M529.5 470.483 529.5 14.4995" stroke="#B0B0B0" stroke-width="1.06644" stroke-linejoin="round" stroke-miterlimit="10" stroke-dasharray="0.639866 1.05578" stroke-opacity="0.901961" fill="none" fill-rule="evenodd"/><path d="M540.5 470.483 540.5 14.4995" stroke="#B0B0B0" stroke-width="1.06644" stroke-linejoin="round" stroke-miterlimit="10" stroke-dasharray="0.639866 1.05578" stroke-opacity="0.901961" fill="none" fill-rule="evenodd"/><path d="M563.5 470.483 563.5 14.4995" stroke="#B0B0B0" stroke-width="1.06644" stroke-linejoin="round" stroke-miterlimit="10" stroke-dasharray="0.639866 1.05578" stroke-opacity="0.901961" fill="none" fill-rule="evenodd"/><path d="M574.5 470.483 574.5 14.4995" stroke="#B0B0B0" stroke-width="1.06644" stroke-linejoin="round" stroke-miterlimit="10" stroke-dasharray="0.639866 1.05578" stroke-opacity="0.901961" fill="none" fill-rule="evenodd"/><path d="M585.5 470.483 585.5 14.4995" stroke="#B0B0B0" stroke-width="1.06644" stroke-linejoin="round" stroke-miterlimit="10" stroke-dasharray="0.639866 1.05578" stroke-opacity="0.901961" fill="none" fill-rule="evenodd"/><path d="M596.5 470.483 596.5 14.4995" stroke="#B0B0B0" stroke-width="1.06644" stroke-linejoin="round" stroke-miterlimit="10" stroke-dasharray="0.639866 1.05578" stroke-opacity="0.901961" fill="none" fill-rule="evenodd"/><path d="M618.5 470.483 618.5 14.4995" stroke="#B0B0B0" stroke-width="1.06644" stroke-linejoin="round" stroke-miterlimit="10" stroke-dasharray="0.639866 1.05578" stroke-opacity="0.901961" fill="none" fill-rule="evenodd"/><path d="M629.5 470.483 629.5 14.4995" stroke="#B0B0B0" stroke-width="1.06644" stroke-linejoin="round" stroke-miterlimit="10" stroke-dasharray="0.639866 1.05578" stroke-opacity="0.901961" fill="none" fill-rule="evenodd"/><path d="M640.5 470.483 640.5 14.4995" stroke="#B0B0B0" stroke-width="1.06644" stroke-linejoin="round" stroke-miterlimit="10" stroke-dasharray="0.639866 1.05578" stroke-opacity="0.901961" fill="none" fill-rule="evenodd"/><path d="M651.5 470.483 651.5 14.4995" stroke="#B0B0B0" stroke-width="1.06644" stroke-linejoin="round" stroke-miterlimit="10" stroke-dasharray="0.639866 1.05578" stroke-opacity="0.901961" fill="none" fill-rule="evenodd"/><path d="M673.5 470.483 673.5 14.4995" stroke="#B0B0B0" stroke-width="1.06644" stroke-linejoin="round" stroke-miterlimit="10" stroke-dasharray="0.639866 1.05578" stroke-opacity="0.901961" fill="none" fill-rule="evenodd"/><path d="M684.5 470.483 684.5 14.4995" stroke="#B0B0B0" stroke-width="1.06644" stroke-linejoin="round" stroke-miterlimit="10" stroke-dasharray="0.639866 1.05578" stroke-opacity="0.901961" fill="none" fill-rule="evenodd"/><path d="M695.5 470.483 695.5 14.4995" stroke="#B0B0B0" stroke-width="1.06644" stroke-linejoin="round" stroke-miterlimit="10" stroke-dasharray="0.639866 1.05578" stroke-opacity="0.901961" fill="none" fill-rule="evenodd"/><path d="M706.5 470.483 706.5 14.4995" stroke="#B0B0B0" stroke-width="1.06644" stroke-linejoin="round" stroke-miterlimit="10" stroke-dasharray="0.639866 1.05578" stroke-opacity="0.901961" fill="none" fill-rule="evenodd"/><path d="M55.5 411.485 717.5 411.485" stroke="#B0B0B0" stroke-width="1.06644" stroke-linejoin="round" stroke-miterlimit="10" stroke-dasharray="0.639866 1.05578" stroke-opacity="0.901961" fill="none" fill-rule="evenodd"/><path d="M55.5 351.487 717.5 351.487" stroke="#B0B0B0" stroke-width="1.06644" stroke-linejoin="round" stroke-miterlimit="10" stroke-dasharray="0.639866 1.05578" stroke-opacity="0.901961" fill="none" fill-rule="evenodd"/><path d="M55.5 316.489 717.5 316.489" stroke="#B0B0B0" stroke-width="1.06644" stroke-linejoin="round" stroke-miterlimit="10" stroke-dasharray="0.639866 1.05578" stroke-opacity="0.901961" fill="none" fill-rule="evenodd"/><path d="M55.5 291.49 717.5 291.49" stroke="#B0B0B0" stroke-width="1.06644" stroke-linejoin="round" stroke-miterlimit="10" stroke-dasharray="0.639866 1.05578" stroke-opacity="0.901961" fill="none" fill-rule="evenodd"/><path d="M55.5 272.49 717.5 272.49" stroke="#B0B0B0" stroke-width="1.06644" stroke-linejoin="round" stroke-miterlimit="10" stroke-dasharray="0.639866 1.05578" stroke-opacity="0.901961" fill="none" fill-rule="evenodd"/><path d="M55.5 213.492 717.5 213.492" stroke="#B0B0B0" stroke-width="1.06644" stroke-linejoin="round" stroke-miterlimit="10" stroke-dasharray="0.639866 1.05578" stroke-opacity="0.901961" fill="none" fill-rule="evenodd"/><path d="M55.5 153.495 717.5 153.495" stroke="#B0B0B0" stroke-width="1.06644" stroke-linejoin="round" stroke-miterlimit="10" stroke-dasharray="0.639866 1.05578" stroke-opacity="0.901961" fill="none" fill-rule="evenodd"/><path d="M55.5 118.496 717.5 118.496" stroke="#B0B0B0" stroke-width="1.06644" stroke-linejoin="round" stroke-miterlimit="10" stroke-dasharray="0.639866 1.05578" stroke-opacity="0.901961" fill="none" fill-rule="evenodd"/><path d="M55.5 93.4967 717.5 93.4967" stroke="#B0B0B0" stroke-width="1.06644" stroke-linejoin="round" stroke-miterlimit="10" stroke-dasharray="0.639866 1.05578" stroke-opacity="0.901961" fill="none" fill-rule="evenodd"/><path d="M55.5 74.4973 717.5 74.4973" stroke="#B0B0B0" stroke-width="1.06644" stroke-linejoin="round" stroke-miterlimit="10" stroke-dasharray="0.639866 1.05578" stroke-opacity="0.901961" fill="none" fill-rule="evenodd"/><path d="M55.5 376.487 717.5 376.487" stroke="#B0B0B0" stroke-width="1.06644" stroke-linejoin="round" stroke-miterlimit="10" stroke-dasharray="0.639866 1.05578" stroke-opacity="0.901961" fill="none" fill-rule="evenodd"/><path d="M55.5 332.488 717.5 332.488" stroke="#B0B0B0" stroke-width="1.06644" stroke-linejoin="round" stroke-miterlimit="10" stroke-dasharray="0.639866 1.05578" stroke-opacity="0.901961" fill="none" fill-rule="evenodd"/><path d="M55.5 303.489 717.5 303.489" stroke="#B0B0B0" stroke-width="1.06644" stroke-linejoin="round" stroke-miterlimit="10" stroke-dasharray="0.639866 1.05578" stroke-opacity="0.901961" fill="none" fill-rule="evenodd"/><path d="M55.5 281.49 717.5 281.49" stroke="#B0B0B0" stroke-width="1.06644" stroke-linejoin="round" stroke-miterlimit="10" stroke-dasharray="0.639866 1.05578" stroke-opacity="0.901961" fill="none" fill-rule="evenodd"/><path d="M55.5 178.494 717.5 178.494" stroke="#B0B0B0" stroke-width="1.06644" stroke-linejoin="round" stroke-miterlimit="10" stroke-dasharray="0.639866 1.05578" stroke-opacity="0.901961" fill="none" fill-rule="evenodd"/><path d="M55.5 134.495 717.5 134.495" stroke="#B0B0B0" stroke-width="1.06644" stroke-linejoin="round" stroke-miterlimit="10" stroke-dasharray="0.639866 1.05578" stroke-opacity="0.901961" fill="none" fill-rule="evenodd"/><path d="M55.5 105.496 717.5 105.496" stroke="#B0B0B0" stroke-width="1.06644" stroke-linejoin="round" stroke-miterlimit="10" stroke-dasharray="0.639866 1.05578" stroke-opacity="0.901961" fill="none" fill-rule="evenodd"/><path d="M55.5 83.497 717.5 83.497" stroke="#B0B0B0" stroke-width="1.06644" stroke-linejoin="round" stroke-miterlimit="10" stroke-dasharray="0.639866 1.05578" stroke-opacity="0.901961" fill="none" fill-rule="evenodd"/><path d="M155.5 521.482 159.746 507.487 165.205 490.334 170.719 473.891 176.289 458.114 181.916 442.962 187.604 428.398 193.351 414.386 199.162 400.894 205.037 387.893 210.978 375.352 216.99 363.246 223.07 351.552 229.224 340.245 235.454 329.306 241.763 318.713 248.154 308.447 256.262 296.05 264.51 284.105 272.909 272.582 281.466 261.454 290.196 250.694 299.115 240.278 306.4 232.176 313.832 224.27 321.431 216.545 329.219 208.991 337.233 201.598 345.521 194.353 354.162 187.246 360.957 181.997 368.135 176.81 373.231 173.383 378.717 169.975 384.887 166.582 388.475 164.889 392.87 163.196 405.5 161.494 405.5 161.494" stroke="#7F7F7F" stroke-width="0.667118" stroke-linecap="square" stroke-linejoin="round" stroke-miterlimit="10" fill="none" fill-rule="evenodd"/><path d="M175.5 521.482 179.589 507.487 184.843 490.334 190.146 473.891 195.502 458.114 200.909 442.962 206.371 428.398 211.887 414.386 217.459 400.894 223.088 387.893 230.208 372.285 237.423 357.35 244.737 343.037 252.151 329.306 259.669 316.116 267.298 303.432 275.042 291.219 282.905 279.447 290.894 268.085 299.015 257.108 307.277 246.488 315.695 236.202 324.28 226.228 333.057 216.545 342.056 207.128 349.447 199.773 357.048 192.565 364.921 185.489 373.181 178.532 379.772 173.383 384.485 169.975 389.672 166.582 392.616 164.889 396.12 163.196 405.5 161.494 405.5 161.494" stroke="#7F7F7F" stroke-width="0.667118" stroke-linecap="square" stroke-linejoin="round" stroke-miterlimit="10" fill="none" fill-rule="evenodd"/><path d="M196.5 521.482 200.412 507.487 205.438 490.334 210.511 473.891 215.629 458.114 222.092 439.267 228.631 421.326 235.246 404.22 241.939 387.893 248.71 372.285 255.563 357.35 262.499 343.037 269.52 329.306 276.629 316.116 283.827 303.432 291.117 291.219 298.502 279.447 305.984 268.085 313.567 257.108 321.255 246.488 329.052 236.202 336.967 226.228 345.012 216.545 353.202 207.128 361.561 197.958 370.134 189.011 377.199 181.997 384.539 175.093 390.357 169.975 394.536 166.582 396.82 164.889 399.416 163.196 405.5 161.494 405.5 161.494" stroke="#7F7F7F" stroke-width="0.667118" stroke-linecap="square" stroke-linejoin="round" stroke-miterlimit="10" fill="none" fill-rule="evenodd"/><path d="M217.5 521.482 222.432 503.13 228.449 482.026 234.53 461.998 240.676 442.962 246.888 424.845 253.165 407.578 259.508 391.099 265.919 375.352 272.396 360.286 278.941 345.852 285.555 332.008 292.238 318.713 298.99 305.929 305.813 293.626 312.705 281.767 319.668 270.326 326.698 259.273 333.797 248.583 342.401 236.202 351.103 224.27 359.901 212.747 368.801 201.598 377.804 190.784 386.927 180.261 396.22 169.975 402.71 163.196 405.5 161.494 405.5 161.494" stroke="#7F7F7F" stroke-width="0.667118" stroke-linecap="square" stroke-linejoin="round" stroke-miterlimit="10" fill="none" fill-rule="evenodd"/><path d="M238.5 521.482 243.186 503.13 248.898 482.026 254.666 461.998 260.491 442.962 266.372 424.845 272.309 407.578 278.3 391.099 284.346 375.352 290.445 360.286 296.597 345.852 302.802 332.008 309.057 318.713 315.364 305.929 321.718 293.626 329.402 279.447 337.146 265.86 344.941 252.818 352.774 240.278 360.634 228.2 369.816 214.641 380.278 199.773 402.7 168.278 404.717 164.889 405.5 163.196 405.006 161.494 405.006 161.494" stroke="#7F7F7F" stroke-width="0.667118" stroke-linecap="square" stroke-linejoin="round" stroke-miterlimit="10" fill="none" fill-rule="evenodd"/><path d="M259.5 521.482 263.969 503.13 269.413 482.026 274.906 461.998 280.447 442.962 286.037 424.845 291.67 407.578 297.347 391.099 303.068 375.352 308.828 360.286 314.627 345.852 320.463 332.008 327.51 316.116 334.599 300.952 341.725 286.458 348.877 272.582 356.039 259.273 364.385 244.404 373.866 228.2 384.365 210.864 400.852 183.739 404.73 176.81 407.285 171.677 408.67 168.278 409.19 166.582 409.5 164.889 409.383 163.196 405.605 161.494 405.605 161.494" stroke="#7F7F7F" stroke-width="0.667118" stroke-linecap="square" stroke-linejoin="round" stroke-miterlimit="10" fill="none" fill-rule="evenodd"/><path d="M279.5 521.482 283.75 503.13 288.922 482.026 294.135 461.998 299.39 442.962 304.68 424.845 310.007 407.578 315.367 391.099 320.756 375.352 327.26 357.35 333.798 340.245 340.361 323.966 346.945 308.447 353.538 293.626 361.224 277.142 368.876 261.454 377.528 244.404 389.115 222.321 401.898 197.958 406.308 189.011 409.461 181.997 411.477 176.81 412.562 173.383 413.315 169.975 413.5 168.278 413.481 166.582 413.136 164.889 412.114 163.196 405.043 161.494 405.043 161.494" stroke="#7F7F7F" stroke-width="0.667118" stroke-linecap="square" stroke-linejoin="round" stroke-miterlimit="10" fill="none" fill-rule="evenodd"/><path d="M300.5 521.482 304.524 503.13 309.419 482.026 314.349 461.998 319.311 442.962 324.301 424.845 330.322 404.22 336.372 384.716 342.446 366.233 348.538 348.689 354.636 332.008 360.732 316.116 367.827 298.492 374.877 281.767 382.836 263.65 393.472 240.278 406.893 210.864 411.64 199.773 414.473 192.565 416.914 185.489 418.373 180.261 419.086 176.81 419.5 173.383 419.464 169.975 419.183 168.278 418.628 166.582 417.624 164.889 415.696 163.196 405.328 161.494 405.328 161.494" stroke="#7F7F7F" stroke-width="0.667118" stroke-linecap="square" stroke-linejoin="round" stroke-miterlimit="10" fill="none" fill-rule="evenodd"/><path d="M321.5 521.482 325.295 503.13 329.906 482.026 334.544 461.998 340.141 439.267 345.764 417.839 351.405 397.599 357.059 378.446 362.714 360.286 368.362 343.037 374.926 323.966 381.444 305.929 388.8 286.458 397.767 263.65 414.939 220.385 419.107 208.991 422.148 199.773 424.185 192.565 425.396 187.246 426.23 181.997 426.5 178.532 426.449 175.093 425.941 171.677 425.437 169.975 424.692 168.278 423.599 166.582 421.938 164.889 419.108 163.196 405.455 161.494 405.455 161.494" stroke="#7F7F7F" stroke-width="0.667118" stroke-linecap="square" stroke-linejoin="round" stroke-miterlimit="10" fill="none" fill-rule="evenodd"/><path d="M87.5 470.483 87.7562 347.789 88.1597 280.032 88.7067 232.42 89.3891 195.795 90.2463 164.664 91.2256 139.026 92.3301 117.05 93.6214 96.9064 95.0865 78.5937 96.6973 62.1124 98.4101 47.4623 100.164 34.6435 102.197 21.8246 103.5 14.4995 103.5 14.4995" stroke="#FF8C00" stroke-width="0.667118" stroke-linecap="square" stroke-linejoin="round" stroke-miterlimit="10" fill="none" fill-rule="evenodd"/><path d="M111.5 470.483 111.765 349.62 112.186 281.863 112.755 234.251 113.466 197.626 114.359 166.495 115.379 140.857 116.529 118.882 117.873 98.7376 119.397 80.4249 121.073 63.9436 122.854 49.2935 124.678 36.4746 126.79 23.6558 128.5 14.4995 128.5 14.4995" stroke="#FF8C00" stroke-width="0.667118" stroke-linecap="square" stroke-linejoin="round" stroke-miterlimit="10" fill="none" fill-rule="evenodd"/><path d="M137.5 470.483 137.774 351.452 138.211 283.694 138.803 236.082 139.541 199.457 140.469 168.326 141.528 142.688 142.72 120.713 144.115 100.569 145.696 82.2563 147.433 65.7749 149.278 51.1247 151.167 38.3059 153.354 25.4871 155.5 14.4995 155.5 14.4995" stroke="#FF8C00" stroke-width="0.667118" stroke-linecap="square" stroke-linejoin="round" stroke-miterlimit="10" fill="none" fill-rule="evenodd"/><path d="M165.5 470.483 165.843 443.014 165.947 404.558 166.3 318.488 166.821 261.72 167.5 219.6 168.317 186.638 169.281 159.169 170.405 135.363 171.628 115.219 173.014 96.9064 174.536 80.4249 176.154 65.7749 178.065 51.1247 180.021 38.3059 182.282 25.4871 184.5 14.4995 184.5 14.4995" stroke="#FF8C00" stroke-width="0.667118" stroke-linecap="square" stroke-linejoin="round" stroke-miterlimit="10" fill="none" fill-rule="evenodd"/><path d="M194.5 470.483 195.957 439.352 196.953 411.883 197.576 386.246 197.819 364.271 198.258 294.683 198.84 247.07 199.565 210.444 200.476 179.313 201.514 153.675 202.685 131.7 204.05 111.556 205.596 93.2438 207.291 76.7624 209.091 62.1124 211.216 47.4623 213.387 34.6435 215.896 21.8246 217.5 14.4995 217.5 14.4995" stroke="#FF8C00" stroke-width="0.667118" stroke-linecap="square" stroke-linejoin="round" stroke-miterlimit="10" fill="none" fill-rule="evenodd"/><path d="M223.5 470.483 226.408 433.858 228.595 402.727 230.228 375.258 231.355 351.452 232.099 329.477 232.478 309.332 233.281 243.407 234.07 206.782 234.99 177.482 236.093 151.844 237.334 129.869 238.78 109.725 240.415 91.4125 242.205 74.9312 244.102 60.2811 246.039 47.4623 248.274 34.6435 250.462 23.6558 252.5 14.4995 252.5 14.4995" stroke="#FF8C00" stroke-width="0.667118" stroke-linecap="square" stroke-linejoin="round" stroke-miterlimit="10" fill="none" fill-rule="evenodd"/><path d="M252.5 470.483 257.814 422.871 261.421 388.077 264.177 358.777 266.296 333.139 267.829 311.164 268.949 291.021 269.682 272.707 270.066 256.227 270.793 219.6 271.705 188.469 272.739 162.832 273.901 140.857 275.252 120.713 276.777 102.4 278.444 85.9187 280.208 71.2686 282.282 56.6186 284.393 43.7998 286.826 30.981 289.201 19.9933 290.5 14.4995 290.5 14.4995" stroke="#FF8C00" stroke-width="0.667118" stroke-linecap="square" stroke-linejoin="round" stroke-miterlimit="10" fill="none" fill-rule="evenodd"/><path d="M280.5 470.483 290.992 399.065 296.352 360.608 300.159 331.308 303.2 305.67 305.515 283.694 307.336 263.551 308.685 245.238 309.601 228.758 310.194 212.276 311.155 184.807 312.264 161 313.584 139.026 314.956 120.713 316.636 102.4 318.463 85.9187 320.388 71.2686 322.339 58.4498 324.581 45.631 327.155 32.8122 329.66 21.8246 331.5 14.4995 331.5 14.4995" stroke="#FF8C00" stroke-width="0.667118" stroke-linecap="square" stroke-linejoin="round" stroke-miterlimit="10" fill="none" fill-rule="evenodd"/><path d="M309.5 470.483 335.781 325.814 340.675 296.514 344.366 272.707 347.217 252.563 349.532 234.251 351.34 217.769 352.839 201.289 353.868 186.638 356.557 142.688 358.065 124.375 359.688 107.894 361.611 91.4125 363.618 76.7624 365.953 62.1124 368.304 49.2935 370.99 36.4746 373.589 25.4871 376.5 14.4995 376.5 14.4995" stroke="#FF8C00" stroke-width="0.667118" stroke-linecap="square" stroke-linejoin="round" stroke-miterlimit="10" fill="none" fill-rule="evenodd"/><path d="M338.5 470.483 348.801 422.871 365.415 347.789 375.81 300.177 381.93 270.876 386.622 247.07 390.314 226.926 393.379 208.613 395.844 192.131 397.753 177.482 399.35 162.832 403.128 124.375 405.285 106.063 407.534 89.5812 409.832 74.9312 412.114 62.1124 414.688 49.2935 417.597 36.4746 420.391 25.4871 423.5 14.4995 423.5 14.4995" stroke="#FF8C00" stroke-width="0.667118" stroke-linecap="square" stroke-linejoin="round" stroke-miterlimit="10" fill="none" fill-rule="evenodd"/><path d="M367.5 470.483 377.63 430.196 389.002 386.246 404.985 325.814 420.892 265.383 428.3 236.082 433.579 214.107 438.108 193.964 441.524 177.482 444.634 161 447.75 142.688 457.066 85.9187 459.884 71.2686 462.611 58.4498 465.631 45.631 468.491 34.6435 471.635 23.6558 474.5 14.4995 474.5 14.4995" stroke="#FF8C00" stroke-width="0.667118" stroke-linecap="square" stroke-linejoin="round" stroke-miterlimit="10" fill="none" fill-rule="evenodd"/><path d="M400.5 470.483 411.445 432.027 423.228 391.74 436.936 345.957 475.545 217.769 482.813 192.131 488.735 170.157 493.843 150.013 498.627 129.869 504.795 102.4 510.637 76.7624 514.699 60.2811 518.129 47.4623 521.865 34.6435 525.355 23.6558 528.5 14.4995 528.5 14.4995" stroke="#FF8C00" stroke-width="0.667118" stroke-linecap="square" stroke-linejoin="round" stroke-miterlimit="10" fill="none" fill-rule="evenodd"/><path d="M436.5 470.483 448.261 433.858 460.929 395.402 475.129 353.284 492.759 302.008 524.948 208.613 534.697 179.313 542.916 153.675 550.221 129.869 557.755 104.231 569.535 63.9436 574.707 47.4623 579.019 34.6435 583.667 21.8246 586.5 14.4995 586.5 14.4995" stroke="#FF8C00" stroke-width="0.667118" stroke-linecap="square" stroke-linejoin="round" stroke-miterlimit="10" fill="none" fill-rule="evenodd"/><path d="M477.5 470.483 490.487 433.858 503.79 397.233 518.068 358.777 534.71 314.826 557.957 254.394 583.254 188.469 595.585 155.506 606.227 126.206 617.846 93.2438 630.143 58.4498 636.279 41.9684 641.326 29.1496 646.701 16.3308 647.5 14.4995 647.5 14.4995" stroke="#FF8C00" stroke-width="0.667118" stroke-linecap="square" stroke-linejoin="round" stroke-miterlimit="10" fill="none" fill-rule="evenodd"/><path d="M522.5 470.483 536.033 435.689 550.603 399.065 566.237 360.608 582.941 320.321 603.024 272.707 662.008 133.532 678.544 93.2438 693.627 56.6186 701.502 38.3059 708.141 23.6558 712.5 14.4995 712.5 14.4995" stroke="#FF8C00" stroke-width="0.667118" stroke-linecap="square" stroke-linejoin="round" stroke-miterlimit="10" fill="none" fill-rule="evenodd"/><path d="M570.5 470.483 585.302 435.672 600.419 400.861 616.656 364.217 634.036 325.741 653.409 283.6 676.494 234.132 740.5 97.4965 740.5 97.4965" stroke="#FF8C00" stroke-width="0.667118" stroke-linecap="square" stroke-linejoin="round" stroke-miterlimit="10" fill="none" fill-rule="evenodd"/><path d="M623.5 470.483 639.562 435.721 655.953 400.959 672.661 366.196 690.573 329.604 709.708 291.183 730.996 249.102 740.5 230.492 740.5 230.492" stroke="#FF8C00" stroke-width="0.667118" stroke-linecap="square" stroke-linejoin="round" stroke-miterlimit="10" fill="none" fill-rule="evenodd"/><path d="M80.5 470.483 80.7459 329.477 81.1559 256.227 81.7121 206.782 82.4308 168.326 83.3023 137.194 84.3014 111.556 85.4334 89.5812 86.7623 69.4374 88.2781 51.1247 89.9533 34.6435 91.7441 19.9933 92.5001 14.4995 92.5001 14.4995" stroke="#8B0000" stroke-width="0.667118" stroke-linecap="square" stroke-linejoin="round" stroke-miterlimit="10" fill="none" fill-rule="evenodd"/><path d="M102.5 470.483 102.749 327.646 103.164 254.394 103.727 204.951 104.456 166.495 105.341 135.363 106.358 109.725 107.512 87.75 108.87 67.606 110.423 49.2935 112.144 32.8122 113.986 18.1622 114.5 14.4995 114.5 14.4995" stroke="#8B0000" stroke-width="0.667118" stroke-linecap="square" stroke-linejoin="round" stroke-miterlimit="10" fill="none" fill-rule="evenodd"/><path d="M125.5 470.483 125.736 323.983 126.126 250.732 126.683 199.457 127.386 161 128.244 129.869 129.233 104.231 130.36 82.2563 131.692 62.1124 133.22 43.7998 134.92 27.3184 136.5 14.4995 136.5 14.4995" stroke="#8B0000" stroke-width="0.667118" stroke-linecap="square" stroke-linejoin="round" stroke-miterlimit="10" fill="none" fill-rule="evenodd"/><path d="M149.5 470.483 149.745 318.488 150.164 243.407 150.754 192.131 151.506 153.675 152.429 122.544 153.501 96.9064 154.731 74.9312 156.046 56.6186 157.516 40.1372 159.103 25.4871 160.5 14.4995 160.5 14.4995" stroke="#8B0000" stroke-width="0.667118" stroke-linecap="square" stroke-linejoin="round" stroke-miterlimit="10" fill="none" fill-rule="evenodd"/><path d="M369.5 470.483 368.576 443.014 367.555 421.04 367.031 411.883 174.5 410.052 174.763 287.357 175.183 219.6 175.769 171.988 176.476 137.194 177.363 107.894 178.373 84.0876 179.508 63.9436 180.83 45.631 182.323 29.1496 183.951 14.4995 183.951 14.4995" stroke="#8B0000" stroke-width="0.667118" stroke-linecap="square" stroke-linejoin="round" stroke-miterlimit="10" fill="none" fill-rule="evenodd"/><path d="M387.5 470.483 386.676 441.183 385.738 417.378 384.681 397.233 383.432 378.92 382.17 364.271 381.621 358.777 201.5 356.946 201.788 248.901 202.222 188.469 202.806 146.35 203.507 115.219 204.359 89.5812 205.376 67.606 206.498 49.2935 207.788 32.8122 209.216 18.1622 209.62 14.4995 209.62 14.4995" stroke="#8B0000" stroke-width="0.667118" stroke-linecap="square" stroke-linejoin="round" stroke-miterlimit="10" fill="none" fill-rule="evenodd"/><path d="M406.5 470.483 405.691 437.521 404.788 411.883 403.737 389.909 402.595 371.595 401.292 355.115 399.843 340.464 398.284 327.646 396.667 316.657 396.057 312.995 228.5 311.164 228.742 203.12 229.136 150.013 229.666 115.219 230.368 87.75 231.212 65.7749 232.188 47.4623 233.35 30.981 234.667 16.3308 234.854 14.4995 234.854 14.4995" stroke="#8B0000" stroke-width="0.667118" stroke-linecap="square" stroke-linejoin="round" stroke-miterlimit="10" fill="none" fill-rule="evenodd"/><path d="M426.5 470.483 425.758 435.689 424.901 408.22 423.878 384.415 422.729 364.271 421.379 345.957 420.024 331.308 418.576 318.488 416.818 305.67 414.992 294.683 413.181 285.526 411.033 276.37 410.058 272.707 258.67 270.876 258.5 131.7 258.786 98.7376 259.303 73.0999 260.002 52.956 260.84 36.4746 261.848 21.8246 262.465 14.4995 262.465 14.4995" stroke="#8B0000" stroke-width="0.667118" stroke-linecap="square" stroke-linejoin="round" stroke-miterlimit="10" fill="none" fill-rule="evenodd"/><path d="M447.5 470.483 446.81 433.858 445.989 404.558 444.979 378.92 443.809 356.946 442.543 338.633 441.103 322.152 439.509 307.501 437.803 294.683 436.046 283.694 434.319 274.539 432.294 265.383 430.404 258.058 428.211 250.732 426.316 245.238 424.148 239.745 422.515 236.082 290.58 234.251 289.309 159.169 288.623 111.556 288.5 84.0876 288.69 62.1124 289.139 43.7998 289.852 27.3184 290.663 14.4995 290.663 14.4995" stroke="#8B0000" stroke-width="0.667118" stroke-linecap="square" stroke-linejoin="round" stroke-miterlimit="10" fill="none" fill-rule="evenodd"/><path d="M470.5 470.483 469.808 430.196 468.986 399.065 468.03 373.427 466.929 351.452 465.74 333.139 464.397 316.657 462.922 302.008 461.355 289.189 459.756 278.201 457.865 267.214 456.01 258.058 453.841 248.901 451.823 241.576 449.491 234.251 447.487 228.758 445.206 223.263 442.579 217.769 440.579 214.107 438.324 210.444 435.737 206.782 432.688 203.12 325.192 201.289 322.809 164.664 320.942 131.7 319.667 104.231 318.92 82.2563 318.535 62.1124 318.5 45.631 318.741 30.981 319.293 16.3308 319.386 14.4995 319.386 14.4995" stroke="#8B0000" stroke-width="0.667118" stroke-linecap="square" stroke-linejoin="round" stroke-miterlimit="10" fill="none" fill-rule="evenodd"/><path d="M493.5 470.483 492.846 428.365 492.046 395.402 491.088 367.933 490.047 345.957 488.804 325.814 487.515 309.332 486.107 294.683 484.621 281.863 482.838 269.045 481.016 258.058 479.245 248.901 477.19 239.745 474.788 230.589 472.557 223.263 469.982 215.938 467.774 210.444 465.267 204.951 462.389 199.457 460.209 195.795 457.768 192.131 454.992 188.469 451.776 184.807 447.926 181.144 445.66 179.313 443.062 177.482 439.983 175.651 436.101 173.82 367.352 171.988 365.527 168.326 364.128 164.664 362.449 159.169 360.655 151.844 359.169 144.519 357.591 135.363 355.981 124.375 354.39 111.556 352.87 96.9064 351.628 82.2563 350.654 67.606 349.957 52.956 349.564 38.3059 349.5 25.4871 349.68 14.4995 349.68 14.4995" stroke="#8B0000" stroke-width="0.667118" stroke-linecap="square" stroke-linejoin="round" stroke-miterlimit="10" fill="none" fill-rule="evenodd"/><path d="M517.5 470.483 516.876 426.534 516.092 391.74 515.193 364.271 514.127 340.464 512.941 320.321 511.565 302.008 510.01 285.526 508.308 270.876 506.506 258.058 504.673 247.07 502.512 236.082 500.405 226.926 497.955 217.769 495.694 210.444 493.107 203.12 490.907 197.626 488.441 192.131 485.652 186.638 482.462 181.144 480.063 177.482 477.392 173.82 474.389 170.157 470.968 166.495 466.995 162.832 462.254 159.169 459.488 157.337 456.361 155.506 452.763 153.675 448.522 151.844 443.381 150.013 437.019 148.182 421.936 144.519 416.019 142.688 411.791 140.857 408.693 139.026 406.301 137.194 404.365 135.363 402.743 133.532 400.122 129.869 398.041 126.206 396.309 122.544 394.15 117.05 392.353 111.556 390.345 104.231 388.655 96.9064 386.872 87.75 385.373 78.5937 383.881 67.606 382.679 56.6186 381.741 45.631 381.061 34.6435 380.642 23.6558 380.5 14.4995 380.5 14.4995" stroke="#8B0000" stroke-width="0.667118" stroke-linecap="square" stroke-linejoin="round" stroke-miterlimit="10" fill="none" fill-rule="evenodd"/><path d="M542.5 470.483 541.908 424.702 541.187 389.909 540.298 360.608 539.303 336.802 538.083 314.826 536.776 296.514 535.304 280.032 533.7 265.383 532.011 252.563 530.302 241.576 528.304 230.589 526.368 221.432 524.141 212.276 521.561 203.12 519.191 195.795 516.491 188.469 514.209 182.975 511.669 177.482 508.822 171.988 505.609 166.495 501.949 161 499.211 157.337 496.188 153.675 492.828 150.013 489.072 146.35 484.842 142.688 480.06 139.026 474.659 135.363 468.649 131.7 452.851 122.544 447.462 118.882 442.975 115.219 439.296 111.556 436.256 107.894 433.706 104.231 431.53 100.569 429.641 96.9064 427.221 91.4125 425.175 85.9187 423.415 80.4249 421.411 73.0999 419.717 65.7749 417.949 56.6186 416.505 47.4623 415.342 38.3059 414.438 29.1496 413.677 18.1622 413.5 14.4995 413.5 14.4995" stroke="#8B0000" stroke-width="0.667118" stroke-linecap="square" stroke-linejoin="round" stroke-miterlimit="10" fill="none" fill-rule="evenodd"/><path d="M568.5 470.483 567.932 422.871 567.217 386.246 566.372 356.946 565.343 331.308 564.162 309.332 562.9 291.021 561.486 274.539 559.947 259.889 558.335 247.07 556.418 234.251 554.478 223.263 552.208 212.276 550.013 203.12 547.489 193.964 545.186 186.638 542.587 179.313 539.641 171.988 537.164 166.495 534.42 161 531.369 155.506 527.962 150.013 524.144 144.519 519.847 139.026 515.002 133.532 511.441 129.869 505.586 124.375 499.187 118.882 483.762 106.063 479.779 102.4 476.148 98.7376 472.888 95.0751 469.987 91.4125 467.412 87.75 465.122 84.0876 462.139 78.5937 459.6 73.0999 457.415 67.606 455.521 62.1124 453.359 54.7872 451.543 47.4623 450.015 40.1372 448.456 30.981 447.242 21.8246 446.5 14.4995 446.5 14.4995" stroke="#8B0000" stroke-width="0.667118" stroke-linecap="square" stroke-linejoin="round" stroke-miterlimit="10" fill="none" fill-rule="evenodd"/><path d="M595.5 470.483 594.952 421.04 594.241 382.584 593.372 351.452 592.367 325.814 591.218 303.839 589.992 285.526 588.621 269.045 587.135 254.394 585.339 239.745 583.453 226.926 581.556 215.938 579.345 204.951 577.219 195.795 574.788 186.638 571.998 177.482 569.463 170.157 566.614 162.832 563.401 155.506 560.717 150.013 557.77 144.519 554.525 139.026 550.953 133.532 547.025 128.038 542.719 122.544 538.032 117.05 533.003 111.556 524.125 102.4 515.319 93.2438 510.425 87.75 505.981 82.2563 502.029 76.7624 498.558 71.2686 495.527 65.7749 492.881 60.2811 490.569 54.7872 488.546 49.2935 486.23 41.9684 484.289 34.6435 482.667 27.3184 481.33 19.9933 480.5 14.4995 480.5 14.4995" stroke="#8B0000" stroke-width="0.667118" stroke-linecap="square" stroke-linejoin="round" stroke-miterlimit="10" fill="none" fill-rule="evenodd"/><path d="M623.5 470.483 622.97 419.209 622.299 380.751 621.483 349.62 620.539 323.983 619.464 302.008 618.189 281.863 616.721 263.551 615.076 247.07 613.293 232.42 611.429 219.6 609.557 208.613 607.387 197.626 605.31 188.469 602.948 179.313 600.253 170.157 597.822 162.832 595.112 155.506 592.084 148.182 588.698 140.857 584.909 133.532 581.778 128.038 578.379 122.544 574.705 117.05 569.38 109.725 563.625 102.4 554.509 91.4125 546.981 82.2563 541.358 74.9312 537.491 69.4374 533.968 63.9436 530.794 58.4498 527.957 52.956 525.438 47.4623 523.205 41.9684 521.233 36.4746 518.966 29.1496 517.067 21.8246 515.5 14.4995 515.5 14.4995" stroke="#8B0000" stroke-width="0.667118" stroke-linecap="square" stroke-linejoin="round" stroke-miterlimit="10" fill="none" fill-rule="evenodd"/><path d="M652.5 470.483 651.986 417.378 651.315 377.089 650.472 344.126 649.467 316.657 648.385 294.683 647.106 274.539 645.637 256.227 643.993 239.745 642.216 225.095 640.364 212.276 638.509 201.289 636.367 190.3 633.885 179.313 631.515 170.157 628.824 161 625.768 151.844 623.023 144.519 619.982 137.194 616.611 129.869 612.882 122.544 608.774 115.219 604.279 107.894 599.417 100.569 592.919 91.4125 575.689 67.606 570.916 60.2811 567.63 54.7872 564.614 49.2935 561.875 43.7998 559.405 38.3059 557.195 32.8122 554.624 25.4871 552.45 18.1622 551.5 14.4995 551.5 14.4995" stroke="#8B0000" stroke-width="0.667118" stroke-linecap="square" stroke-linejoin="round" stroke-miterlimit="10" fill="none" fill-rule="evenodd"/><path d="M682.5 470.483 682.001 415.546 681.33 373.427 680.516 340.464 679.547 312.995 678.406 289.189 677.15 269.045 675.707 250.732 674.099 234.251 672.365 219.6 670.561 206.782 668.437 193.964 666.317 182.975 663.87 171.988 661.541 162.832 658.913 153.675 655.947 144.519 653.299 137.194 650.383 129.869 647.178 122.544 643.663 115.219 639.83 107.894 635.681 100.569 630.089 91.4125 622.947 80.4249 610.929 62.1124 606.437 54.7872 602.275 47.4623 598.497 40.1372 595.13 32.8122 592.178 25.4871 589.629 18.1622 588.5 14.4995 588.5 14.4995" stroke="#8B0000" stroke-width="0.667118" stroke-linecap="square" stroke-linejoin="round" stroke-miterlimit="10" fill="none" fill-rule="evenodd"/><path d="M712.5 470.483 712.017 413.714 711.382 371.595 710.614 338.633 709.699 311.164 708.625 287.357 707.444 267.214 706.092 248.901 704.587 232.42 702.968 217.769 701.291 204.951 699.321 192.131 697.361 181.144 695.109 170.157 692.519 159.169 690.066 150.013 687.308 140.857 684.214 131.7 680.745 122.544 677.683 115.219 674.35 107.894 670.746 100.569 665.875 91.4125 660.651 82.2563 651.871 67.606 644.253 54.7872 639.142 45.631 635.366 38.3059 631.922 30.981 628.835 23.6558 626.12 16.3308 625.5 14.4995 625.5 14.4995" stroke="#8B0000" stroke-width="0.667118" stroke-linecap="square" stroke-linejoin="round" stroke-miterlimit="10" fill="none" fill-rule="evenodd"/><path d="M740.5 297.49 739.396 274.768 738.131 254.606 736.682 236.278 735.074 219.781 733.347 205.119 731.558 192.288 729.464 179.458 727.386 168.461 725.005 157.463 722.757 148.299 720.242 139.135 717.431 129.971 714.295 120.806 710.811 111.642 706.96 102.477 702.744 93.3131 698.185 84.1488 692.354 73.1515 675.498 41.9926 671.041 32.8283 667.788 25.4968 664.846 18.1654 663.5 14.4995 663.5 14.4995" stroke="#8B0000" stroke-width="0.667118" stroke-linecap="square" stroke-linejoin="round" stroke-miterlimit="10" fill="none" fill-rule="evenodd"/><path d="M740.5 99.4965 737.288 91.9435 733.082 82.724 727.688 71.6605 718.248 53.2215 711.753 40.3142 707.396 31.0948 703.393 21.8752 700.5 14.4995 700.5 14.4995" stroke="#8B0000" stroke-width="0.667118" stroke-linecap="square" stroke-linejoin="round" stroke-miterlimit="10" fill="none" fill-rule="evenodd"/><path d="M134.5 521.482 138.925 507.487 144.616 490.334 150.365 473.891 156.176 458.114 162.049 442.962 167.99 428.398 173.997 414.386 180.073 400.894 186.221 387.893 192.446 375.352 198.746 363.246 205.126 351.552 211.59 340.245 218.141 329.306 224.78 318.713 231.515 308.447 238.349 298.492 245.286 288.83 252.333 279.447 259.496 270.326 266.783 261.454 274.203 252.818 281.765 244.404 289.486 236.202 297.379 228.2 305.467 220.385 313.778 212.747 322.349 205.275 331.233 197.958 340.514 190.784 347.815 185.489 355.512 180.261 363.781 175.093 369.781 171.677 376.438 168.278 380.184 166.582 384.432 164.889 389.738 163.196 405.5 161.494 405.5 161.494" stroke="#000000" stroke-width="1.00068" stroke-linecap="square" stroke-linejoin="round" stroke-miterlimit="10" fill="none" fill-rule="evenodd"/><path d="M342.5 521.482 346.064 503.13 351.258 477.937 356.478 454.269 361.717 431.986 366.965 410.966 372.215 391.099 378.328 369.247 384.41 348.689 390.44 329.306 397.237 308.447 404.707 286.458 425.418 226.228 428.922 214.641 430.94 207.128 432.623 199.773 433.605 194.353 434.275 189.011 434.5 185.489 434.499 181.997 434.209 178.532 433.533 175.093 433.002 173.383 432.302 171.677 431.384 169.975 430.176 168.278 428.546 166.582 426.232 164.889 422.499 163.196 405.748 161.494 405.748 161.494" stroke="#000000" stroke-width="1.00068" stroke-linecap="square" stroke-linejoin="round" stroke-miterlimit="10" fill="none" fill-rule="evenodd"/><rect x="56" y="38.9986" width="166" height="88.9968" fill="#FFFFFF" fill-opacity="0.6"/><text fill="#7F7F7F" font-family="EB Garamond,EB Garamond_MSFontService,sans-serif" font-weight="400" font-size="14.009" transform="matrix(1 0 0 0.999964 65.8947 62)">—</text><text fill="#7F7F7F" font-family="EB Garamond,EB Garamond_MSFontService,sans-serif" font-weight="400" font-size="14.009" transform="matrix(1 0 0 0.999964 77.2357 62)">—</text><text fill="#7F7F7F" font-family="EB Garamond,EB Garamond_MSFontService,sans-serif" font-weight="400" font-size="14.009" transform="matrix(1 0 0 0.999964 108.457 62)">Quality</text><text fill="#8B0000" font-family="EB Garamond,EB Garamond_MSFontService,sans-serif" font-weight="400" font-size="14.009" transform="matrix(1 0 0 0.999964 65.8947 79)">—</text><text fill="#8B0000" font-family="EB Garamond,EB Garamond_MSFontService,sans-serif" font-weight="400" font-size="14.009" transform="matrix(1 0 0 0.999964 77.2357 79)">—</text><text fill="#8B0000" font-family="EB Garamond,EB Garamond_MSFontService,sans-serif" font-weight="400" font-size="14.009" transform="matrix(1 0 0 0.999964 108.457 79)">Isotherm, K</text><text fill="#FF8C00" font-family="EB Garamond,EB Garamond_MSFontService,sans-serif" font-weight="400" font-size="14.009" transform="matrix(1 0 0 0.999964 65.8947 96)">—</text><text fill="#FF8C00" font-family="EB Garamond,EB Garamond_MSFontService,sans-serif" font-weight="400" font-size="14.009" transform="matrix(1 0 0 0.999964 77.2357 96)">—</text><text fill="#FF8C00" font-family="EB Garamond,EB Garamond_MSFontService,sans-serif" font-weight="400" font-size="14.009" transform="matrix(1 0 0 0.999964 108.457 96)">Isentrop</text><text fill="#FF8C00" font-family="EB Garamond,EB Garamond_MSFontService,sans-serif" font-weight="400" font-size="14.009" transform="matrix(1 0 0 0.999964 153.988 96)">, kJ/(kg K)</text><text fill="#00008B" font-family="EB Garamond,EB Garamond_MSFontService,sans-serif" font-weight="400" font-size="14.009" transform="matrix(1 0 0 0.999964 65.8947 113)">—</text><text fill="#00008B" font-family="EB Garamond,EB Garamond_MSFontService,sans-serif" font-weight="400" font-size="14.009" transform="matrix(1 0 0 0.999964 77.2357 113)">—</text><text fill="#00008B" font-family="EB Garamond,EB Garamond_MSFontService,sans-serif" font-weight="400" font-size="14.009" transform="matrix(1 0 0 0.999964 108.457 113)">Isochor, m</text><text fill="#00008B" font-family="EB Garamond,EB Garamond_MSFontService,sans-serif" font-weight="400" font-size="9.33932" transform="matrix(1 0 0 0.999964 166.163 109)">3</text><text fill="#00008B" font-family="EB Garamond,EB Garamond_MSFontService,sans-serif" font-weight="400" font-size="14.009" transform="matrix(1 0 0 0.999964 170.666 113)">/kg</text><path d="M151.5 470.483 157.683 454.003 163.476 439.352 169.568 424.702 175.984 410.052 182.749 395.402 188.979 382.584 195.519 369.764 202.393 356.946 209.626 344.126 217.242 331.308 224.101 320.321 231.284 309.332 238.814 298.345 246.713 287.357 255.007 276.37 263.723 265.383 271.328 256.227 279.265 247.07 287.55 237.914 292.522 232.42 294.182 215.938 295.951 201.289 297.768 188.469 299.878 175.651 301.957 164.664 304.321 153.675 307.011 142.688 309.532 133.532 312.343 124.375 315.476 115.219 318.967 106.063 322.046 98.7376 325.407 91.4125 329.077 84.0876 333.084 76.7624 337.462 69.4374 342.245 62.1124 347.477 54.7872 351.72 49.2935 356.26 43.7998 361.12 38.3059 366.322 32.8122 371.894 27.3184 377.866 21.8246 384.265 16.3308 386.5 14.4995 386.5 14.4995" stroke="#00008B" stroke-width="0.667118" stroke-linecap="square" stroke-linejoin="round" stroke-miterlimit="10" fill="none" fill-rule="evenodd"/><path d="M151.5 470.483 157.6 454.003 164.042 437.521 170.08 422.871 176.436 408.22 183.132 393.571 189.293 380.751 192.948 373.427 193.401 371.595 193.974 323.983 194.692 287.357 195.595 256.227 196.629 230.589 197.798 208.613 199.17 188.469 200.73 170.157 202.452 153.675 204.29 139.026 206.181 126.206 208.382 113.388 210.553 102.4 213.028 91.4125 215.353 82.2563 217.948 73.0999 220.846 63.9436 224.081 54.7872 226.939 47.4623 230.064 40.1372 233.482 32.8122 237.22 25.4871 241.311 18.1622 243.5 14.4995 243.5 14.4995" stroke="#00008B" stroke-width="0.667118" stroke-linecap="square" stroke-linejoin="round" stroke-miterlimit="10" fill="none" fill-rule="evenodd"/><path d="M152.5 470.483 158.103 455.834 164.001 441.183 170.219 426.534 176.785 411.883 182.839 399.065 189.204 386.246 195.904 373.427 202.964 360.608 209.326 349.62 215.993 338.633 222.99 327.646 230.337 316.657 238.063 305.67 246.193 294.683 253.298 285.526 260.725 276.37 268.492 267.214 276.621 258.058 285.137 248.901 294.065 239.745 303.432 230.589 313.268 221.432 323.611 212.276 334.497 203.12 343.63 195.795 353.17 188.469 363.159 181.144 373.666 173.82 381.971 168.326 387.82 164.664 390.943 162.832 394.128 159.169 401.829 150.013 408.347 142.688 415.277 135.363 422.703 128.038 428.647 122.544 434.951 117.05 441.647 111.556 448.771 106.063 456.36 100.569 464.45 95.0751 473.086 89.5812 482.309 84.0876 492.168 78.5937 502.716 73.0999 514.01 67.606 526.114 62.1124 539.097 56.6186 553.036 51.1247 568.015 45.631 584.124 40.1372 601.463 34.6435 620.147 29.1496 640.295 23.6558 662.042 18.1622 677.5 14.4995 677.5 14.4995" stroke="#00008B" stroke-width="0.667118" stroke-linecap="square" stroke-linejoin="round" stroke-miterlimit="10" fill="none" fill-rule="evenodd"/><path d="M151.5 470.483 157.769 454.003 163.649 439.352 169.842 424.702 176.376 410.052 182.394 397.233 188.714 384.415 195.36 371.595 202.356 358.777 209.73 345.957 216.374 334.97 223.339 323.983 230.646 312.995 238.318 302.008 246.384 291.021 254.868 280.032 262.283 270.876 270.029 261.72 278.128 252.563 286.6 243.407 295.472 234.251 304.767 225.095 314.517 215.938 324.75 206.782 335.505 197.626 344.514 190.3 353.918 182.975 363.761 175.651 368.873 171.988 370.974 170.157 375.602 161 379.607 153.675 383.909 146.35 388.541 139.026 393.534 131.7 398.929 124.375 404.767 117.05 411.093 109.725 416.188 104.231 421.61 98.7376 427.384 93.2438 433.534 87.75 440.09 82.2563 447.086 76.7624 454.553 71.2686 462.528 65.7749 471.053 60.2811 480.171 54.7872 489.93 49.2935 500.383 43.7998 511.588 38.3059 523.608 32.8122 536.512 27.3184 550.376 21.8246 565.283 16.3308 570.5 14.4995 570.5 14.4995" stroke="#00008B" stroke-width="0.667118" stroke-linecap="square" stroke-linejoin="round" stroke-miterlimit="10" fill="none" fill-rule="evenodd"/><path d="M154.5 470.483 160.412 455.849 166.667 441.214 172.449 428.41 178.543 415.605 184.976 402.799 191.775 389.994 197.921 379.018 204.382 368.042 211.182 357.067 218.349 346.09 225.911 335.115 232.538 325.968 239.483 316.821 246.764 307.675 254.41 298.529 262.441 289.382 270.889 280.235 279.781 271.089 289.154 261.943 299.039 252.795 307.347 245.478 316.03 238.161 325.117 230.844 334.633 223.526 344.609 216.209 355.083 208.892 366.09 201.575 377.684 194.258 389.928 186.94 402.913 179.623 413.229 174.135 424.192 168.648 428.049 166.818 439.965 159.5 449.648 154.012 460.088 148.525 471.363 143.037 483.564 137.549 496.782 132.061 511.115 126.573 526.674 121.085 543.574 115.597 555.649 111.939 568.417 108.28 581.925 104.621 596.217 100.963 611.345 97.3042 627.362 93.6454 644.323 89.9868 662.288 86.3282 681.325 82.6696 701.498 79.011 722.881 75.3524 740.5 72.4974 740.5 72.4974" stroke="#00008B" stroke-width="0.667118" stroke-linecap="square" stroke-linejoin="round" stroke-miterlimit="10" fill="none" fill-rule="evenodd"/><path d="M153.5 470.483 159.229 455.856 165.274 441.228 171.662 426.601 177.558 413.802 183.761 401.003 190.3 388.205 197.199 375.405 203.424 364.435 209.958 353.465 216.822 342.493 224.04 331.523 231.643 320.553 239.658 309.582 246.674 300.44 254.019 291.298 261.716 282.155 269.786 273.013 278.256 263.871 287.153 254.728 296.507 245.587 306.354 236.445 316.729 227.303 325.437 219.988 334.536 212.675 344.051 205.361 354.015 198.048 364.467 190.733 375.461 183.42 387.079 176.106 396.297 170.621 406.178 165.136 413.45 161.478 422.604 154.165 432.32 146.851 440.067 141.366 448.289 135.881 457.052 130.396 466.419 124.91 476.457 119.425 487.228 113.94 498.798 108.454 511.238 102.969 524.624 97.4839 539.042 91.9986 554.585 86.5133 571.354 81.028 589.463 75.5427 609.035 70.0574 630.207 64.5721 653.13 59.0868 677.966 53.6015 695.676 49.9446 714.376 46.2878 740.5 41.4985 740.5 41.4985" stroke="#00008B" stroke-width="0.667118" stroke-linecap="square" stroke-linejoin="round" stroke-miterlimit="10" fill="none" fill-rule="evenodd"/><path d="M158.5 470.483 164.203 457.666 170.243 444.849 176.651 432.03 182.461 421.044 188.592 410.056 195.069 399.07 201.921 388.083 209.179 377.096 215.566 367.94 222.282 358.785 229.351 349.629 236.801 340.473 244.66 331.318 252.959 322.163 261.732 313.006 269.117 305.682 276.85 298.358 284.953 291.034 293.45 283.708 302.369 276.384 311.735 269.06 321.58 261.735 331.936 254.41 342.84 247.086 354.331 239.761 366.456 232.437 379.26 225.113 392.802 217.787 407.147 210.463 418.476 204.97 430.338 199.477 442.866 193.984 451.913 190.32 461.572 186.658 471.879 182.996 482.876 179.334 494.614 175.672 507.144 172.01 520.522 168.348 534.809 164.686 550.069 161.022 566.369 157.36 583.782 153.698 602.381 150.036 622.25 146.374 643.475 142.712 666.143 139.05 690.355 135.387 716.21 131.725 740.5 128.495 740.5 128.495" stroke="#00008B" stroke-width="0.667118" stroke-linecap="square" stroke-linejoin="round" stroke-miterlimit="10" fill="none" fill-rule="evenodd"/><path d="M155.5 470.483 161.691 455.832 167.424 443.01 173.481 430.19 179.889 417.37 185.685 406.38 191.785 395.391 198.212 384.402 204.992 373.412 212.157 362.423 219.734 351.434 226.392 342.276 233.383 333.119 240.732 323.961 248.465 314.803 256.61 305.645 265.198 296.488 274.264 287.329 283.845 278.172 291.905 270.846 300.344 263.52 309.185 256.195 318.452 248.867 328.177 241.542 338.392 234.216 349.131 226.89 360.434 219.563 372.347 212.237 384.923 204.911 398.225 197.585 408.726 192.09 419.722 186.595 450.097 171.943 458.301 168.281 467.006 164.618 476.242 160.953 486.044 157.291 496.454 153.628 507.51 149.965 519.258 146.302 531.743 142.639 545.016 138.976 559.129 135.313 574.139 131.65 590.106 127.986 607.091 124.323 625.165 120.66 644.396 116.997 664.863 113.334 686.646 109.671 709.831 106.008 740.5 101.496 740.5 101.496" stroke="#00008B" stroke-width="0.667118" stroke-linecap="square" stroke-linejoin="round" stroke-miterlimit="10" fill="none" fill-rule="evenodd"/><path d="M167.5 470.483 173.437 459.517 179.741 448.551 185.301 439.412 191.16 430.273 197.342 421.135 203.873 411.995 210.78 402.857 218.09 393.718 225.839 384.58 234.06 375.44 241.001 368.13 248.292 360.819 255.954 353.508 264.01 346.196 272.489 338.886 281.416 331.575 290.824 324.264 300.744 316.952 311.212 309.642 322.269 302.331 333.952 295.02 346.307 287.708 359.384 280.398 373.235 273.087 387.919 265.776 399.513 260.293 411.641 254.809 415.808 252.981 425.653 249.326 436.341 245.671 447.84 242.015 460.215 238.36 473.532 234.704 487.856 231.049 503.264 227.394 519.839 223.737 537.664 220.082 556.831 216.426 577.439 212.771 599.585 209.116 623.377 205.46 648.929 201.805 676.359 198.15 705.793 194.494 740.5 190.493 740.5 190.493" stroke="#00008B" stroke-width="0.667118" stroke-linecap="square" stroke-linejoin="round" stroke-miterlimit="10" fill="none" fill-rule="evenodd"/><path d="M161.5 470.483 167.68 457.683 173.294 446.712 179.228 435.739 185.509 424.768 192.167 413.795 198.027 404.652 204.194 395.51 210.691 386.367 217.54 377.223 224.771 368.08 232.412 358.937 240.495 349.793 249.055 340.65 256.273 333.336 263.841 326.021 271.783 318.706 280.122 311.392 288.885 304.077 298.102 296.763 307.801 289.449 318.017 282.133 328.786 274.819 340.146 267.505 352.14 260.191 364.814 252.875 378.22 245.561 392.414 238.246 407.459 230.932 419.344 225.447 427.668 221.788 437.066 218.131 447.15 214.474 457.97 210.817 469.568 207.16 481.999 203.503 495.325 199.845 509.611 196.188 524.928 192.53 541.349 188.873 558.954 185.216 577.825 181.558 598.053 177.901 619.731 174.244 642.959 170.587 667.84 166.93 694.486 163.273 723.015 159.614 740.5 157.494 740.5 157.494" stroke="#00008B" stroke-width="0.667118" stroke-linecap="square" stroke-linejoin="round" stroke-miterlimit="10" fill="none" fill-rule="evenodd"/><path d="M189.5 470.483 196.633 461.338 202.672 454.021 209.027 446.705 215.721 439.388 222.775 432.071 230.214 424.755 238.065 417.438 246.356 410.121 255.116 402.804 264.378 395.488 274.177 388.172 284.549 380.854 295.536 373.538 307.179 366.221 319.526 358.905 332.626 351.588 346.532 344.271 357.526 338.784 369.033 333.296 381.078 327.809 389.424 324.151 393.978 322.322 404.433 318.662 415.717 315.004 427.9 311.346 441.056 307.688 455.267 304.029 470.617 300.371 487.196 296.713 505.096 293.055 524.42 289.397 545.27 285.737 567.759 282.079 592.003 278.421 618.122 274.763 646.246 271.104 676.509 267.446 709.051 263.788 740.5 260.491 740.5 260.491" stroke="#00008B" stroke-width="0.667118" stroke-linecap="square" stroke-linejoin="round" stroke-miterlimit="10" fill="none" fill-rule="evenodd"/><path d="M178.5 470.483 184.526 461.342 190.911 452.2 197.683 443.057 204.873 433.915 212.517 424.774 218.983 417.46 225.783 410.146 232.94 402.832 240.478 395.519 248.422 388.206 256.799 380.891 265.639 373.578 274.973 366.265 284.835 358.951 295.262 351.638 306.294 344.323 317.971 337.01 330.341 329.697 343.452 322.383 357.357 315.069 368.342 309.584 379.83 304.099 391.853 298.614 400.177 294.957 404.916 293.129 415.497 289.472 426.9 285.814 439.198 282.157 452.467 278.501 466.785 274.844 482.232 271.187 498.894 267.531 516.864 263.874 536.238 260.217 557.118 256.561 579.614 252.903 603.84 249.246 629.913 245.589 657.96 241.933 688.113 238.276 720.512 234.619 740.5 232.492 740.5 232.492" stroke="#00008B" stroke-width="0.667118" stroke-linecap="square" stroke-linejoin="round" stroke-miterlimit="10" fill="none" fill-rule="evenodd"/><path d="M229.5 470.483 238.222 463.191 247.468 455.898 257.276 448.605 267.685 441.311 278.74 434.019 290.483 426.726 302.966 419.433 312.845 413.963 323.193 408.493 334.035 403.024 345.398 397.554 357.308 392.085 369.796 386.615 374.121 384.792 383.952 381.144 394.572 377.498 406.05 373.852 418.459 370.205 431.876 366.559 446.388 362.913 462.084 359.266 479.059 355.62 497.412 351.974 517.25 348.326 538.684 344.68 561.828 341.033 586.805 337.387 613.743 333.741 642.775 330.094 674.041 326.448 707.688 322.802 740.5 319.489 740.5 319.489" stroke="#00008B" stroke-width="0.667118" stroke-linecap="square" stroke-linejoin="round" stroke-miterlimit="10" fill="none" fill-rule="evenodd"/><path d="M206.5 470.483 213.481 463.166 220.854 455.849 228.645 448.531 236.885 441.213 245.603 433.895 254.835 426.578 264.615 419.261 274.982 411.942 285.975 404.625 297.641 397.307 310.028 389.99 323.185 382.673 333.592 377.183 344.486 371.695 355.898 366.207 367.85 360.719 380.377 355.231 385.022 353.402 395.341 349.742 406.488 346.083 418.534 342.425 431.551 338.766 445.622 335.107 460.834 331.449 477.278 327.79 495.048 324.131 514.249 320.473 534.987 316.813 557.372 313.154 581.524 309.495 607.566 305.837 635.628 302.178 665.845 298.519 698.361 294.861 740.5 290.49 740.5 290.49" stroke="#00008B" stroke-width="0.667118" stroke-linecap="square" stroke-linejoin="round" stroke-miterlimit="10" fill="none" fill-rule="evenodd"/><path d="M319.5 470.483 331.192 465.032 343.471 459.581 356.358 454.13 365.395 450.495 375.151 446.861 385.69 443.226 397.081 439.592 409.4 435.957 422.728 432.323 437.15 428.689 452.757 425.055 469.648 421.421 487.924 417.786 507.693 414.151 529.068 410.517 552.167 406.883 577.112 403.248 604.035 399.614 633.07 395.98 664.357 392.346 698.045 388.712 740.5 384.486 740.5 384.486" stroke="#00008B" stroke-width="0.667118" stroke-linecap="square" stroke-linejoin="round" stroke-miterlimit="10" fill="none" fill-rule="evenodd"/><path d="M263.5 470.483 274.838 463.177 286.899 455.87 296.452 450.39 306.465 444.91 316.962 439.429 327.971 433.949 339.517 428.469 351.629 422.989 364.339 417.509 373.663 413.855 383.773 410.201 394.7 406.548 406.512 402.895 419.286 399.242 433.105 395.588 448.057 391.935 464.233 388.282 481.733 384.628 500.659 380.974 521.124 377.321 543.237 373.667 567.119 370.014 592.897 366.361 620.7 362.707 650.666 359.054 682.938 355.401 717.664 351.748 740.5 349.488 740.5 349.488" stroke="#00008B" stroke-width="0.667118" stroke-linecap="square" stroke-linejoin="round" stroke-miterlimit="10" fill="none" fill-rule="evenodd"/><path d="M612.5 470.483 642.429 466.833 674.68 463.183 709.4 459.533 740.5 456.484 740.5 456.484" stroke="#00008B" stroke-width="0.667118" stroke-linecap="square" stroke-linejoin="round" stroke-miterlimit="10" fill="none" fill-rule="evenodd"/><path d="M442.5 470.483 458.727 466.899 476.289 463.315 495.295 459.73 515.854 456.146 538.081 452.562 562.1 448.977 588.037 445.393 616.025 441.807 646.203 438.223 678.714 434.639 713.711 431.054 740.5 428.485 740.5 428.485" stroke="#00008B" stroke-width="0.667118" stroke-linecap="square" stroke-linejoin="round" stroke-miterlimit="10" fill="none" fill-rule="evenodd"/><path d="M151.5 470.483 157.649 454.002 163.407 439.352 169.46 424.702 175.832 410.052 182.55 395.402 188.731 382.583 195.219 369.764 202.034 356.945 209.2 344.126 216.745 331.308 223.534 320.32 230.641 309.332 238.087 298.345 245.893 287.357 249.939 281.863 250.711 280.032 251.752 256.226 253.007 234.251 254.329 215.938 255.788 199.457 257.556 182.975 259.443 168.325 261.383 155.506 263.639 142.688 265.865 131.7 268.4 120.713 270.78 111.556 273.435 102.4 276.397 93.2437 279.703 84.0874 282.622 76.7623 285.812 69.4373 289.298 62.1122 293.109 54.7872 297.277 47.4621 301.838 40.1371 306.83 32.812 310.884 27.3183 315.226 21.8245 319.877 16.3308 321.5 14.4995 321.5 14.4995" stroke="#00008B" stroke-width="0.667118" stroke-linecap="square" stroke-linejoin="round" stroke-miterlimit="10" fill="none" fill-rule="evenodd"/><path d="M151.5 470.483 157.637 454.002 163.382 439.352 169.422 424.702 175.778 410.052 182.477 395.402 188.64 382.583 195.107 369.764 201.899 356.945 209.039 344.126 216.554 331.308 224.313 318.489 225.129 285.526 226.095 258.057 227.222 234.251 228.454 214.107 229.856 195.794 231.403 179.313 233.053 164.663 235.014 150.013 237.03 137.194 239.377 124.375 241.693 113.388 244.332 102.4 246.812 93.2437 249.579 84.0874 252.668 74.931 256.117 65.7748 259.165 58.4498 262.497 51.1247 266.141 43.7997 270.127 36.4746 274.49 29.1496 279.267 21.8245 284.5 14.4995 284.5 14.4995" stroke="#00008B" stroke-width="0.667118" stroke-linecap="square" stroke-linejoin="round" stroke-miterlimit="10" fill="none" fill-rule="evenodd"/><path d="M151.5 470.483 157.712 454.002 163.532 439.352 169.656 424.702 176.108 410.052 182.915 395.402 189.185 382.583 195.771 369.764 202.695 356.945 209.985 344.126 216.544 333.139 223.411 322.151 230.606 311.164 238.151 300.176 246.069 289.189 254.387 278.201 263.133 267.213 270.768 258.057 278.739 248.901 287.066 239.744 295.77 230.588 304.874 221.432 314.404 212.276 322.352 204.951 322.839 203.119 325.197 190.3 327.517 179.313 330.15 168.325 332.615 159.169 335.355 150.013 338.402 140.856 341.791 131.7 345.561 122.544 348.881 115.219 352.498 107.894 356.44 100.569 360.738 93.2437 365.425 85.9187 370.539 78.5936 376.122 71.2686 380.645 65.7748 385.478 60.2809 390.645 54.7872 396.172 49.2934 402.085 43.7997 408.414 38.3059 415.192 32.812 422.453 27.3183 430.237 21.8245 438.584 16.3308 441.5 14.4995 441.5 14.4995" stroke="#00008B" stroke-width="0.667118" stroke-linecap="square" stroke-linejoin="round" stroke-miterlimit="10" fill="none" fill-rule="evenodd"/><path d="M151.5 470.483 157.736 454.002 163.581 439.352 169.736 424.702 176.223 410.052 183.072 395.402 189.385 382.583 196.02 369.764 203.002 356.945 210.356 344.126 216.979 333.139 223.917 322.151 231.191 311.164 238.826 300.176 246.846 289.189 255.278 278.201 264.151 267.213 271.905 258.057 280.008 248.901 288.479 239.744 297.343 230.588 306.625 221.432 316.352 212.276 326.554 203.119 337.268 193.963 348.539 184.807 350.865 182.975 352.406 181.144 355.455 171.988 358.824 162.832 362.55 153.675 365.811 146.35 369.348 139.025 373.184 131.7 377.346 124.375 381.864 117.05 386.774 109.725 392.11 102.4 397.916 95.0749 402.605 89.5811 407.605 84.0874 412.939 78.5936 418.63 73.0998 424.708 67.606 431.199 62.1122 438.137 56.6185 445.557 51.1247 453.495 45.6309 461.993 40.1371 471.096 34.6433 480.854 29.1496 491.32 23.6558 502.553 18.1619 510.5 14.4995 510.5 14.4995" stroke="#00008B" stroke-width="0.667118" stroke-linecap="square" stroke-linejoin="round" stroke-miterlimit="10" fill="none" fill-rule="evenodd"/><path d="M0 0 739 0 739 519.982 0 519.982 0 0ZM55.4249 14.2612 55.4249 470.348 716.912 470.348 716.912 14.2612 55.4249 14.2612Z" fill="#FFFFFF" fill-rule="evenodd"/><path d="M55.5066 470.523 55.5066 475.523" stroke="#000000" stroke-width="1.06644" stroke-linejoin="round" stroke-miterlimit="10" fill="none" fill-rule="evenodd"/><path d="M55.5039 470.539 51.5038 470.539" stroke="#000000" stroke-width="1.06644" stroke-linejoin="round" stroke-miterlimit="10" fill="none" fill-rule="evenodd"/><path d="M55.5039 411.51 51.5038 411.51" stroke="#000000" stroke-width="1.06644" stroke-linejoin="round" stroke-miterlimit="10" fill="none" fill-rule="evenodd"/><path d="M55.5039 351.508 51.5038 351.508" stroke="#000000" stroke-width="1.06644" stroke-linejoin="round" stroke-miterlimit="10" fill="none" fill-rule="evenodd"/><path d="M55.5039 316.526 51.5038 316.526" stroke="#000000" stroke-width="1.06644" stroke-linejoin="round" stroke-miterlimit="10" fill="none" fill-rule="evenodd"/><path d="M55.5039 291.524 51.5038 291.524" stroke="#000000" stroke-width="1.06644" stroke-linejoin="round" stroke-miterlimit="10" fill="none" fill-rule="evenodd"/><path d="M55.5039 272.522 51.5038 272.522" stroke="#000000" stroke-width="1.06644" stroke-linejoin="round" stroke-miterlimit="10" fill="none" fill-rule="evenodd"/><path d="M55.5039 213.505 51.5038 213.505" stroke="#000000" stroke-width="1.06644" stroke-linejoin="round" stroke-miterlimit="10" fill="none" fill-rule="evenodd"/><path d="M55.5039 153.504 51.5038 153.504" stroke="#000000" stroke-width="1.06644" stroke-linejoin="round" stroke-miterlimit="10" fill="none" fill-rule="evenodd"/><path d="M55.5039 118.503 51.5038 118.503" stroke="#000000" stroke-width="1.06644" stroke-linejoin="round" stroke-miterlimit="10" fill="none" fill-rule="evenodd"/><path d="M55.5039 93.5022 51.5038 93.5022" stroke="#000000" stroke-width="1.06644" stroke-linejoin="round" stroke-miterlimit="10" fill="none" fill-rule="evenodd"/><path d="M55.5039 74.5016 51.5038 74.5016" stroke="#000000" stroke-width="1.06644" stroke-linejoin="round" stroke-miterlimit="10" fill="none" fill-rule="evenodd"/><path d="M55.5039 14.5012 51.5038 14.5012" stroke="#000000" stroke-width="1.06644" stroke-linejoin="round" stroke-miterlimit="10" fill="none" fill-rule="evenodd"/><path d="M55.5033 376.509 53.5033 376.509" stroke="#000000" stroke-width="0.799806" stroke-linejoin="round" stroke-miterlimit="10" fill="none" fill-rule="evenodd"/><path d="M55.5033 332.508 53.5033 332.508" stroke="#000000" stroke-width="0.799806" stroke-linejoin="round" stroke-miterlimit="10" fill="none" fill-rule="evenodd"/><path d="M55.5033 303.507 53.5033 303.507" stroke="#000000" stroke-width="0.799806" stroke-linejoin="round" stroke-miterlimit="10" fill="none" fill-rule="evenodd"/><path d="M55.5033 281.523 53.5033 281.523" stroke="#000000" stroke-width="0.799806" stroke-linejoin="round" stroke-miterlimit="10" fill="none" fill-rule="evenodd"/><path d="M55.5033 178.504 53.5033 178.504" stroke="#000000" stroke-width="0.799806" stroke-linejoin="round" stroke-miterlimit="10" fill="none" fill-rule="evenodd"/><path d="M55.5033 134.503 53.5033 134.503" stroke="#000000" stroke-width="0.799806" stroke-linejoin="round" stroke-miterlimit="10" fill="none" fill-rule="evenodd"/><path d="M55.5033 105.502 53.5033 105.502" stroke="#000000" stroke-width="0.799806" stroke-linejoin="round" stroke-miterlimit="10" fill="none" fill-rule="evenodd"/><path d="M55.5033 83.5019 53.5033 83.5019" stroke="#000000" stroke-width="0.799806" stroke-linejoin="round" stroke-miterlimit="10" fill="none" fill-rule="evenodd"/><path d="M55.5 470.483 55.5 14.4995" stroke="#000000" stroke-width="1.06644" stroke-linecap="square" stroke-miterlimit="8" fill="none" fill-rule="evenodd"/><path d="M55.5 14.4995 717.5 14.4995" stroke="#000000" stroke-width="1.06644" stroke-linecap="square" stroke-miterlimit="8" fill="none" fill-rule="evenodd"/><path d="M717.5 470.483 717.5 14.4995" stroke="#000000" stroke-width="1.06644" stroke-linecap="square" stroke-miterlimit="8" fill="none" fill-rule="evenodd"/><path d="M111.507 470.523 111.507 475.523" stroke="#000000" stroke-width="1.06644" stroke-linejoin="round" stroke-miterlimit="10" fill="none" fill-rule="evenodd"/><path d="M166.51 470.523 166.51 475.523" stroke="#000000" stroke-width="1.06644" stroke-linejoin="round" stroke-miterlimit="10" fill="none" fill-rule="evenodd"/><path d="M221.513 470.523 221.513 475.523" stroke="#000000" stroke-width="1.06644" stroke-linejoin="round" stroke-miterlimit="10" fill="none" fill-rule="evenodd"/><path d="M276.516 470.523 276.516 475.523" stroke="#000000" stroke-width="1.06644" stroke-linejoin="round" stroke-miterlimit="10" fill="none" fill-rule="evenodd"/><path d="M331.52 470.523 331.52 475.523" stroke="#000000" stroke-width="1.06644" stroke-linejoin="round" stroke-miterlimit="10" fill="none" fill-rule="evenodd"/><path d="M386.523 470.523 386.523 475.523" stroke="#000000" stroke-width="1.06644" stroke-linejoin="round" stroke-miterlimit="10" fill="none" fill-rule="evenodd"/><path d="M441.552 470.523 441.552 475.523" stroke="#000000" stroke-width="1.06644" stroke-linejoin="round" stroke-miterlimit="10" fill="none" fill-rule="evenodd"/><path d="M496.559 470.523 496.559 475.523" stroke="#000000" stroke-width="1.06644" stroke-linejoin="round" stroke-miterlimit="10" fill="none" fill-rule="evenodd"/><path d="M552.533 470.523 552.533 475.523" stroke="#000000" stroke-width="1.06644" stroke-linejoin="round" stroke-miterlimit="10" fill="none" fill-rule="evenodd"/><path d="M607.536 470.523 607.536 475.523" stroke="#000000" stroke-width="1.06644" stroke-linejoin="round" stroke-miterlimit="10" fill="none" fill-rule="evenodd"/><path d="M662.539 470.523 662.539 475.523" stroke="#000000" stroke-width="1.06644" stroke-linejoin="round" stroke-miterlimit="10" fill="none" fill-rule="evenodd"/><path d="M717.542 470.523 717.542 475.523" stroke="#000000" stroke-width="1.06644" stroke-linejoin="round" stroke-miterlimit="10" fill="none" fill-rule="evenodd"/><path d="M66.5079 470.525 66.5079 473.525" stroke="#000000" stroke-width="0.799806" stroke-linejoin="round" stroke-miterlimit="10" fill="none" fill-rule="evenodd"/><path d="M77.5091 470.525 77.5091 473.525" stroke="#000000" stroke-width="0.799806" stroke-linejoin="round" stroke-miterlimit="10" fill="none" fill-rule="evenodd"/><path d="M88.5104 470.525 88.5104 473.525" stroke="#000000" stroke-width="0.799806" stroke-linejoin="round" stroke-miterlimit="10" fill="none" fill-rule="evenodd"/><path d="M100.506 470.525 100.506 473.525" stroke="#000000" stroke-width="0.799806" stroke-linejoin="round" stroke-miterlimit="10" fill="none" fill-rule="evenodd"/><path d="M122.507 470.525 122.507 473.525" stroke="#000000" stroke-width="0.799806" stroke-linejoin="round" stroke-miterlimit="10" fill="none" fill-rule="evenodd"/><path d="M133.508 470.525 133.508 473.525" stroke="#000000" stroke-width="0.799806" stroke-linejoin="round" stroke-miterlimit="10" fill="none" fill-rule="evenodd"/><path d="M144.508 470.525 144.508 473.525" stroke="#000000" stroke-width="0.799806" stroke-linejoin="round" stroke-miterlimit="10" fill="none" fill-rule="evenodd"/><path d="M155.509 470.525 155.509 473.525" stroke="#000000" stroke-width="0.799806" stroke-linejoin="round" stroke-miterlimit="10" fill="none" fill-rule="evenodd"/><path d="M177.51 470.525 177.51 473.525" stroke="#000000" stroke-width="0.799806" stroke-linejoin="round" stroke-miterlimit="10" fill="none" fill-rule="evenodd"/><path d="M188.511 470.525 188.511 473.525" stroke="#000000" stroke-width="0.799806" stroke-linejoin="round" stroke-miterlimit="10" fill="none" fill-rule="evenodd"/><path d="M199.512 470.525 199.512 473.525" stroke="#000000" stroke-width="0.799806" stroke-linejoin="round" stroke-miterlimit="10" fill="none" fill-rule="evenodd"/><path d="M210.512 470.525 210.512 473.525" stroke="#000000" stroke-width="0.799806" stroke-linejoin="round" stroke-miterlimit="10" fill="none" fill-rule="evenodd"/><path d="M232.514 470.525 232.514 473.525" stroke="#000000" stroke-width="0.799806" stroke-linejoin="round" stroke-miterlimit="10" fill="none" fill-rule="evenodd"/><path d="M243.514 470.525 243.514 473.525" stroke="#000000" stroke-width="0.799806" stroke-linejoin="round" stroke-miterlimit="10" fill="none" fill-rule="evenodd"/><path d="M254.515 470.525 254.515 473.525" stroke="#000000" stroke-width="0.799806" stroke-linejoin="round" stroke-miterlimit="10" fill="none" fill-rule="evenodd"/><path d="M265.516 470.525 265.516 473.525" stroke="#000000" stroke-width="0.799806" stroke-linejoin="round" stroke-miterlimit="10" fill="none" fill-rule="evenodd"/><path d="M287.517 470.525 287.517 473.525" stroke="#000000" stroke-width="0.799806" stroke-linejoin="round" stroke-miterlimit="10" fill="none" fill-rule="evenodd"/><path d="M298.518 470.525 298.518 473.525" stroke="#000000" stroke-width="0.799806" stroke-linejoin="round" stroke-miterlimit="10" fill="none" fill-rule="evenodd"/><path d="M309.518 470.525 309.518 473.525" stroke="#000000" stroke-width="0.799806" stroke-linejoin="round" stroke-miterlimit="10" fill="none" fill-rule="evenodd"/><path d="M320.519 470.525 320.519 473.525" stroke="#000000" stroke-width="0.799806" stroke-linejoin="round" stroke-miterlimit="10" fill="none" fill-rule="evenodd"/><path d="M342.52 470.525 342.52 473.525" stroke="#000000" stroke-width="0.799806" stroke-linejoin="round" stroke-miterlimit="10" fill="none" fill-rule="evenodd"/><path d="M353.521 470.525 353.521 473.525" stroke="#000000" stroke-width="0.799806" stroke-linejoin="round" stroke-miterlimit="10" fill="none" fill-rule="evenodd"/><path d="M364.521 470.525 364.521 473.525" stroke="#000000" stroke-width="0.799806" stroke-linejoin="round" stroke-miterlimit="10" fill="none" fill-rule="evenodd"/><path d="M375.522 470.525 375.522 473.525" stroke="#000000" stroke-width="0.799806" stroke-linejoin="round" stroke-miterlimit="10" fill="none" fill-rule="evenodd"/><path d="M397.547 470.525 397.547 473.525" stroke="#000000" stroke-width="0.799806" stroke-linejoin="round" stroke-miterlimit="10" fill="none" fill-rule="evenodd"/><path d="M408.548 470.525 408.548 473.525" stroke="#000000" stroke-width="0.799806" stroke-linejoin="round" stroke-miterlimit="10" fill="none" fill-rule="evenodd"/><path d="M419.549 470.525 419.549 473.525" stroke="#000000" stroke-width="0.799806" stroke-linejoin="round" stroke-miterlimit="10" fill="none" fill-rule="evenodd"/><path d="M430.551 470.525 430.551 473.525" stroke="#000000" stroke-width="0.799806" stroke-linejoin="round" stroke-miterlimit="10" fill="none" fill-rule="evenodd"/><path d="M452.553 470.525 452.553 473.525" stroke="#000000" stroke-width="0.799806" stroke-linejoin="round" stroke-miterlimit="10" fill="none" fill-rule="evenodd"/><path d="M463.555 470.525 463.555 473.525" stroke="#000000" stroke-width="0.799806" stroke-linejoin="round" stroke-miterlimit="10" fill="none" fill-rule="evenodd"/><path d="M474.556 470.525 474.556 473.525" stroke="#000000" stroke-width="0.799806" stroke-linejoin="round" stroke-miterlimit="10" fill="none" fill-rule="evenodd"/><path d="M485.557 470.525 485.557 473.525" stroke="#000000" stroke-width="0.799806" stroke-linejoin="round" stroke-miterlimit="10" fill="none" fill-rule="evenodd"/><path d="M507.56 470.525 507.56 473.525" stroke="#000000" stroke-width="0.799806" stroke-linejoin="round" stroke-miterlimit="10" fill="none" fill-rule="evenodd"/><path d="M518.561 470.525 518.561 473.525" stroke="#000000" stroke-width="0.799806" stroke-linejoin="round" stroke-miterlimit="10" fill="none" fill-rule="evenodd"/><path d="M529.563 470.525 529.563 473.525" stroke="#000000" stroke-width="0.799806" stroke-linejoin="round" stroke-miterlimit="10" fill="none" fill-rule="evenodd"/><path d="M540.564 470.525 540.564 473.525" stroke="#000000" stroke-width="0.799806" stroke-linejoin="round" stroke-miterlimit="10" fill="none" fill-rule="evenodd"/><path d="M563.533 470.525 563.533 473.525" stroke="#000000" stroke-width="0.799806" stroke-linejoin="round" stroke-miterlimit="10" fill="none" fill-rule="evenodd"/><path d="M574.534 470.525 574.534 473.525" stroke="#000000" stroke-width="0.799806" stroke-linejoin="round" stroke-miterlimit="10" fill="none" fill-rule="evenodd"/><path d="M585.534 470.525 585.534 473.525" stroke="#000000" stroke-width="0.799806" stroke-linejoin="round" stroke-miterlimit="10" fill="none" fill-rule="evenodd"/><path d="M596.535 470.525 596.535 473.525" stroke="#000000" stroke-width="0.799806" stroke-linejoin="round" stroke-miterlimit="10" fill="none" fill-rule="evenodd"/><path d="M618.536 470.525 618.536 473.525" stroke="#000000" stroke-width="0.799806" stroke-linejoin="round" stroke-miterlimit="10" fill="none" fill-rule="evenodd"/><path d="M629.537 470.525 629.537 473.525" stroke="#000000" stroke-width="0.799806" stroke-linejoin="round" stroke-miterlimit="10" fill="none" fill-rule="evenodd"/><path d="M640.538 470.525 640.538 473.525" stroke="#000000" stroke-width="0.799806" stroke-linejoin="round" stroke-miterlimit="10" fill="none" fill-rule="evenodd"/><path d="M651.538 470.525 651.538 473.525" stroke="#000000" stroke-width="0.799806" stroke-linejoin="round" stroke-miterlimit="10" fill="none" fill-rule="evenodd"/><path d="M673.54 470.525 673.54 473.525" stroke="#000000" stroke-width="0.799806" stroke-linejoin="round" stroke-miterlimit="10" fill="none" fill-rule="evenodd"/><path d="M684.54 470.525 684.54 473.525" stroke="#000000" stroke-width="0.799806" stroke-linejoin="round" stroke-miterlimit="10" fill="none" fill-rule="evenodd"/><path d="M695.541 470.525 695.541 473.525" stroke="#000000" stroke-width="0.799806" stroke-linejoin="round" stroke-miterlimit="10" fill="none" fill-rule="evenodd"/><path d="M706.542 470.525 706.542 473.525" stroke="#000000" stroke-width="0.799806" stroke-linejoin="round" stroke-miterlimit="10" fill="none" fill-rule="evenodd"/><path d="M55.5 470.483 717.5 470.483" stroke="#000000" stroke-width="1.06644" stroke-linecap="square" stroke-miterlimit="8" fill="none" fill-rule="evenodd"/><text font-family="EB Garamond,EB Garamond_MSFontService,sans-serif" font-weight="400" font-size="14.009" transform="matrix(1 0 0 0.999964 52.4355 491)">0</text><text font-family="EB Garamond,EB Garamond_MSFontService,sans-serif" font-weight="400" font-size="14.009" transform="matrix(1 0 0 0.999964 703.776 491)">1200</text><text font-family="EB Garamond,EB Garamond_MSFontService,sans-serif" font-weight="400" font-size="14.009" transform="matrix(1 0 0 0.999964 100.877 491)">100</text><text font-family="EB Garamond,EB Garamond_MSFontService,sans-serif" font-weight="400" font-size="14.009" transform="matrix(1 0 0 0.999964 155.989 491)">200</text><text font-family="EB Garamond,EB Garamond_MSFontService,sans-serif" font-weight="400" font-size="14.009" transform="matrix(1 0 0 0.999964 211.101 491)">300</text><text font-family="EB Garamond,EB Garamond_MSFontService,sans-serif" font-weight="400" font-size="14.009" transform="matrix(1 0 0 0.999964 266.213 491)">400</text><text font-family="EB Garamond,EB Garamond_MSFontService,sans-serif" font-weight="400" font-size="14.009" transform="matrix(1 0 0 0.999964 321.326 491)">500</text><text font-family="EB Garamond,EB Garamond_MSFontService,sans-serif" font-weight="400" font-size="14.009" transform="matrix(1 0 0 0.999964 486.662 491)">800</text><text font-family="EB Garamond,EB Garamond_MSFontService,sans-serif" font-weight="400" font-size="14.009" transform="matrix(1 0 0 0.999964 541.775 491)">900</text><text font-family="EB Garamond,EB Garamond_MSFontService,sans-serif" font-weight="400" font-size="14.009" transform="matrix(1 0 0 0.999964 593.551 491)">1000</text><text font-family="EB Garamond,EB Garamond_MSFontService,sans-serif" font-weight="400" font-size="14.009" transform="matrix(1 0 0 0.999964 648.664 491)">1100</text><text font-family="EB Garamond,EB Garamond_MSFontService,sans-serif" font-weight="400" font-size="14.009" transform="matrix(1 0 0 0.999964 431.55 491)">700</text><text font-family="EB Garamond,EB Garamond_MSFontService,sans-serif" font-weight="400" font-size="14.009" transform="matrix(1 0 0 0.999964 376.438 491)">600</text><text font-family="EB Garamond,EB Garamond_MSFontService,sans-serif" font-weight="400" font-size="14.009" transform="matrix(1 0 0 0.999964 31.3561 18)">20</text><text font-family="EB Garamond,EB Garamond_MSFontService,sans-serif" font-weight="400" font-size="14.009" transform="matrix(1 0 0 0.999964 31.3561 78)">10</text><text font-family="EB Garamond,EB Garamond_MSFontService,sans-serif" font-weight="400" font-size="14.009" transform="matrix(1 0 0 0.999964 38.0599 97)">8</text><text font-family="EB Garamond,EB Garamond_MSFontService,sans-serif" font-weight="400" font-size="14.009" transform="matrix(1 0 0 0.999964 38.0599 122)">6</text><text font-family="EB Garamond,EB Garamond_MSFontService,sans-serif" font-weight="400" font-size="14.009" transform="matrix(1 0 0 0.999964 38.0599 156)">4</text><text font-family="EB Garamond,EB Garamond_MSFontService,sans-serif" font-weight="400" font-size="14.009" transform="matrix(1 0 0 0.999964 38.0599 216)">2</text><text font-family="EB Garamond,EB Garamond_MSFontService,sans-serif" font-weight="400" font-size="14.009" transform="matrix(1 0 0 0.999964 28.1718 475)">0.1</text><text font-family="EB Garamond,EB Garamond_MSFontService,sans-serif" font-weight="400" font-size="14.009" transform="matrix(1 0 0 0.999964 28.1718 295)">0.8</text><text font-family="EB Garamond,EB Garamond_MSFontService,sans-serif" font-weight="400" font-size="14.009" transform="matrix(1 0 0 0.999964 28.1718 320)">0.6</text><text font-family="EB Garamond,EB Garamond_MSFontService,sans-serif" font-weight="400" font-size="14.009" transform="matrix(1 0 0 0.999964 28.1718 354)">0.4</text><text font-family="EB Garamond,EB Garamond_MSFontService,sans-serif" font-weight="400" font-size="14.009" transform="matrix(1 0 0 0.999964 28.1718 414)">0.2</text><text font-family="EB Garamond,EB Garamond_MSFontService,sans-serif" font-weight="400" font-size="14.009" transform="matrix(1 0 0 0.999964 38.0599 276)">1</text><text font-family="EB Garamond,EB Garamond_MSFontService,sans-serif" font-weight="400" font-size="16.0103" transform="matrix(1 0 0 0.999964 301.863 511)">Speciﬁc Enthalpy,</text><text font-family="EB Garamond,EB Garamond_MSFontService,sans-serif" font-style="italic" font-weight="400" font-size="16.0103" transform="matrix(1 0 0 0.999964 413.759 511)">h</text><text font-family="EB Garamond,EB Garamond_MSFontService,sans-serif" font-weight="400" font-size="16.0103" transform="matrix(1 0 0 0.999964 424.766 511)">(kJ/kg)</text><text font-family="EB Garamond,EB Garamond_MSFontService,sans-serif" font-weight="400" font-size="16.0103" transform="matrix(-1.83697e-16 -0.999929 1.00004 -1.8369e-16 16.8369 296)">Pressure,</text><text font-family="EB Garamond,EB Garamond_MSFontService,sans-serif" font-style="italic" font-weight="400" font-size="16.0103" transform="matrix(-1.83697e-16 -0.999929 1.00004 -1.8369e-16 16.8369 239)">p</text><text font-family="EB Garamond,EB Garamond_MSFontService,sans-serif" font-weight="400" font-size="16.0103" transform="matrix(-1.83697e-16 -0.999929 1.00004 -1.8369e-16 16.8369 228)">(MPa)</text><text fill="#8B0000" font-family="EB Garamond,EB Garamond_MSFontService,sans-serif" font-weight="400" font-size="10.6735" transform="matrix(1 0 0 0.999964 80.4084 29)">200</text><text fill="#8B0000" font-family="EB Garamond,EB Garamond_MSFontService,sans-serif" font-weight="400" font-size="10.6735" transform="matrix(1 0 0 0.999964 103.958 29)">220</text><text fill="#8B0000" font-family="EB Garamond,EB Garamond_MSFontService,sans-serif" font-weight="400" font-size="10.6735" transform="matrix(1 0 0 0.999964 127.507 29)">240</text><text fill="#8B0000" font-family="EB Garamond,EB Garamond_MSFontService,sans-serif" font-weight="400" font-size="10.6735" transform="matrix(1 0 0 0.999964 151.056 29)">260</text><text fill="#8B0000" font-family="EB Garamond,EB Garamond_MSFontService,sans-serif" font-weight="400" font-size="10.6735" transform="matrix(1 0 0 0.999964 174.605 29)">280</text><text fill="#8B0000" font-family="EB Garamond,EB Garamond_MSFontService,sans-serif" font-weight="400" font-size="10.6735" transform="matrix(1 0 0 0.999964 198.155 29)">300</text><text fill="#8B0000" font-family="EB Garamond,EB Garamond_MSFontService,sans-serif" font-weight="400" font-size="10.6735" transform="matrix(1 0 0 0.999964 548.753 29)">520</text><text fill="#8B0000" font-family="EB Garamond,EB Garamond_MSFontService,sans-serif" font-weight="400" font-size="10.6735" transform="matrix(1 0 0 0.999964 586.445 29)">540</text><text fill="#8B0000" font-family="EB Garamond,EB Garamond_MSFontService,sans-serif" font-weight="400" font-size="10.6735" transform="matrix(1 0 0 0.999964 624.137 29)">560</text><text fill="#8B0000" font-family="EB Garamond,EB Garamond_MSFontService,sans-serif" font-weight="400" font-size="10.6735" transform="matrix(1 0 0 0.999964 661.829 29)">580</text><text fill="#8B0000" font-family="EB Garamond,EB Garamond_MSFontService,sans-serif" font-weight="400" font-size="10.6735" transform="matrix(1 0 0 0.999964 699.521 29)">600</text><text fill="#8B0000" font-family="EB Garamond,EB Garamond_MSFontService,sans-serif" font-weight="400" font-size="10.6735" transform="matrix(1 0 0 0.999964 227.254 29)">320</text><text fill="#8B0000" font-family="EB Garamond,EB Garamond_MSFontService,sans-serif" font-weight="400" font-size="10.6735" transform="matrix(1 0 0 0.999964 255.607 29)">340</text><text fill="#8B0000" font-family="EB Garamond,EB Garamond_MSFontService,sans-serif" font-weight="400" font-size="10.6735" transform="matrix(1 0 0 0.999964 283.959 29)">360</text><text fill="#8B0000" font-family="EB Garamond,EB Garamond_MSFontService,sans-serif" font-weight="400" font-size="10.6735" transform="matrix(1 0 0 0.999964 312.312 29)">380</text><text fill="#8B0000" font-family="EB Garamond,EB Garamond_MSFontService,sans-serif" font-weight="400" font-size="10.6735" transform="matrix(1 0 0 0.999964 340.664 29)">400</text><text fill="#8B0000" font-family="EB Garamond,EB Garamond_MSFontService,sans-serif" font-weight="400" font-size="10.6735" transform="matrix(1 0 0 0.999964 374.643 29)">420</text><text fill="#8B0000" font-family="EB Garamond,EB Garamond_MSFontService,sans-serif" font-weight="400" font-size="10.6735" transform="matrix(1 0 0 0.999964 409.2 29)">440</text><text fill="#8B0000" font-family="EB Garamond,EB Garamond_MSFontService,sans-serif" font-weight="400" font-size="10.6735" transform="matrix(1 0 0 0.999964 443.757 29)">460</text><text fill="#8B0000" font-family="EB Garamond,EB Garamond_MSFontService,sans-serif" font-weight="400" font-size="10.6735" transform="matrix(1 0 0 0.999964 478.314 29)">480</text><text fill="#8B0000" font-family="EB Garamond,EB Garamond_MSFontService,sans-serif" font-weight="400" font-size="10.6735" transform="matrix(1 0 0 0.999964 512.87 29)">500</text><text fill="#00008B" font-family="EB Garamond,EB Garamond_MSFontService,sans-serif" font-weight="400" font-size="10.6735" transform="matrix(1 0 0 0.999964 211.399 57)">0.0018</text><text fill="#00008B" font-family="EB Garamond,EB Garamond_MSFontService,sans-serif" font-weight="400" font-size="10.6735" transform="matrix(1 0 0 0.999964 249.291 57)">0.0019</text><text fill="#00008B" font-family="EB Garamond,EB Garamond_MSFontService,sans-serif" font-weight="400" font-size="10.6735" transform="matrix(1 0 0 0.999964 287.184 57)">0.0020</text><text fill="#00008B" font-family="EB Garamond,EB Garamond_MSFontService,sans-serif" font-weight="400" font-size="10.6735" transform="matrix(1 0 0 0.999964 582.847 76)">0.005</text><text fill="#00008B" font-family="EB Garamond,EB Garamond_MSFontService,sans-serif" font-weight="400" font-size="10.6735" transform="matrix(1 0 0 0.999964 610.866 97)">0.007</text><text fill="#00008B" font-family="EB Garamond,EB Garamond_MSFontService,sans-serif" font-weight="400" font-size="10.6735" transform="matrix(1 0 0 0.999964 629.879 121)">0.01</text><text fill="#00008B" font-family="EB Garamond,EB Garamond_MSFontService,sans-serif" font-weight="400" font-size="10.6735" transform="matrix(1 0 0 0.999964 648.892 144)">0.014</text><text fill="#00008B" font-family="EB Garamond,EB Garamond_MSFontService,sans-serif" font-weight="400" font-size="10.6735" transform="matrix(1 0 0 0.999964 667.438 170)">0.02</text><text fill="#00008B" font-family="EB Garamond,EB Garamond_MSFontService,sans-serif" font-weight="400" font-size="10.6735" transform="matrix(1 0 0 0.999964 676.911 199)">0.03</text><text fill="#00008B" font-family="EB Garamond,EB Garamond_MSFontService,sans-serif" font-weight="400" font-size="10.6735" transform="matrix(1 0 0 0.999964 686.451 240)">0.05</text><text fill="#00008B" font-family="EB Garamond,EB Garamond_MSFontService,sans-serif" font-weight="400" font-size="10.6735" transform="matrix(1 0 0 0.999964 693.089 267)">0.07</text><text fill="#00008B" font-family="EB Garamond,EB Garamond_MSFontService,sans-serif" font-weight="400" font-size="10.6735" transform="matrix(1 0 0 0.999964 698.259 297)">0.1</text><text fill="#00008B" font-family="EB Garamond,EB Garamond_MSFontService,sans-serif" font-weight="400" font-size="10.6735" transform="matrix(1 0 0 0.999964 693.089 326)">0.14</text><text fill="#00008B" font-family="EB Garamond,EB Garamond_MSFontService,sans-serif" font-weight="400" font-size="10.6735" transform="matrix(1 0 0 0.999964 698.259 356)">0.2</text><text fill="#00008B" font-family="EB Garamond,EB Garamond_MSFontService,sans-serif" font-weight="400" font-size="10.6735" transform="matrix(1 0 0 0.999964 698.259 390)">0.3</text><text fill="#00008B" font-family="EB Garamond,EB Garamond_MSFontService,sans-serif" font-weight="400" font-size="10.6735" transform="matrix(1 0 0 0.999964 698.259 434)">0.5</text><text fill="#00008B" font-family="EB Garamond,EB Garamond_MSFontService,sans-serif" font-weight="400" font-size="10.6735" transform="matrix(1 0 0 0.999964 698.259 464)">0.7</text><text fill="#00008B" font-family="EB Garamond,EB Garamond_MSFontService,sans-serif" font-weight="400" font-size="10.6735" transform="matrix(1 0 0 0.999964 330.506 57)">0.0022</text><text fill="#00008B" font-family="EB Garamond,EB Garamond_MSFontService,sans-serif" font-weight="400" font-size="10.6735" transform="matrix(1 0 0 0.999964 377.538 57)">0.0024</text><text fill="#00008B" font-family="EB Garamond,EB Garamond_MSFontService,sans-serif" font-weight="400" font-size="10.6735" transform="matrix(1 0 0 0.999964 424.57 57)">0.0027</text><text fill="#00008B" font-family="EB Garamond,EB Garamond_MSFontService,sans-serif" font-weight="400" font-size="10.6735" transform="matrix(1 0 0 0.999964 475.42 57)">0.003</text><text fill="#00008B" font-family="EB Garamond,EB Garamond_MSFontService,sans-serif" font-weight="400" font-size="10.6735" transform="matrix(1 0 0 0.999964 532.125 57)">0.0036</text><text fill="#FF8C00" font-family="EB Garamond,EB Garamond_MSFontService,sans-serif" font-weight="400" font-size="10.6735" transform="matrix(1 0 0 0.999964 370.094 453)">2.4</text><text fill="#FF8C00" font-family="EB Garamond,EB Garamond_MSFontService,sans-serif" font-weight="400" font-size="10.6735" transform="matrix(1 0 0 0.999964 406.118 453)">2.6</text><text fill="#FF8C00" font-family="EB Garamond,EB Garamond_MSFontService,sans-serif" font-weight="400" font-size="10.6735" transform="matrix(1 0 0 0.999964 442.143 453)">2.8</text><text fill="#FF8C00" font-family="EB Garamond,EB Garamond_MSFontService,sans-serif" font-weight="400" font-size="10.6735" transform="matrix(1 0 0 0.999964 478.167 453)">3.0</text><text fill="#FF8C00" font-family="EB Garamond,EB Garamond_MSFontService,sans-serif" font-weight="400" font-size="10.6735" transform="matrix(1 0 0 0.999964 78.9567 453)">0.4</text><text fill="#FF8C00" font-family="EB Garamond,EB Garamond_MSFontService,sans-serif" font-weight="400" font-size="10.6735" transform="matrix(1 0 0 0.999964 107.309 453)">0.6</text><text fill="#FF8C00" font-family="EB Garamond,EB Garamond_MSFontService,sans-serif" font-weight="400" font-size="10.6735" transform="matrix(1 0 0 0.999964 135.662 453)">0.8</text><text fill="#FF8C00" font-family="EB Garamond,EB Garamond_MSFontService,sans-serif" font-weight="400" font-size="10.6735" transform="matrix(1 0 0 0.999964 164.014 453)">1.0</text><text fill="#FF8C00" font-family="EB Garamond,EB Garamond_MSFontService,sans-serif" font-weight="400" font-size="10.6735" transform="matrix(1 0 0 0.999964 192.367 453)">1.2</text><text fill="#FF8C00" font-family="EB Garamond,EB Garamond_MSFontService,sans-serif" font-weight="400" font-size="10.6735" transform="matrix(1 0 0 0.999964 220.719 453)">1.4</text><text fill="#FF8C00" font-family="EB Garamond,EB Garamond_MSFontService,sans-serif" font-weight="400" font-size="10.6735" transform="matrix(1 0 0 0.999964 249.072 453)">1.6</text><text fill="#FF8C00" font-family="EB Garamond,EB Garamond_MSFontService,sans-serif" font-weight="400" font-size="10.6735" transform="matrix(1 0 0 0.999964 277.424 453)">1.8</text><text fill="#FF8C00" font-family="EB Garamond,EB Garamond_MSFontService,sans-serif" font-weight="400" font-size="10.6735" transform="matrix(1 0 0 0.999964 305.777 453)">2.0</text><text fill="#FF8C00" font-family="EB Garamond,EB Garamond_MSFontService,sans-serif" font-weight="400" font-size="10.6735" transform="matrix(1 0 0 0.999964 334.129 453)">2.2</text><text fill="#FF8C00" font-family="EB Garamond,EB Garamond_MSFontService,sans-serif" font-weight="400" font-size="10.6735" transform="matrix(1 0 0 0.999964 523.279 453)">3.2</text><text fill="#FF8C00" font-family="EB Garamond,EB Garamond_MSFontService,sans-serif" font-weight="400" font-size="10.6735" transform="matrix(1 0 0 0.999964 574.981 453)">3.4</text><text fill="#FF8C00" font-family="EB Garamond,EB Garamond_MSFontService,sans-serif" font-weight="400" font-size="10.6735" transform="matrix(1 0 0 0.999964 626.682 453)">3.6</text><text fill="#7F7F7F" font-family="EB Garamond,EB Garamond_MSFontService,sans-serif" font-weight="400" font-size="10.6735" transform="matrix(1 0 0 0.999964 194.584 395)">0.1</text><text fill="#7F7F7F" font-family="EB Garamond,EB Garamond_MSFontService,sans-serif" font-weight="400" font-size="10.6735" transform="matrix(1 0 0 0.999964 213.463 395)">0.2</text><text fill="#7F7F7F" font-family="EB Garamond,EB Garamond_MSFontService,sans-serif" font-weight="400" font-size="10.6735" transform="matrix(1 0 0 0.999964 232.342 395)">0.3</text><text fill="#7F7F7F" font-family="EB Garamond,EB Garamond_MSFontService,sans-serif" font-weight="400" font-size="10.6735" transform="matrix(1 0 0 0.999964 251.222 395)">0.4</text><text fill="#7F7F7F" font-family="EB Garamond,EB Garamond_MSFontService,sans-serif" font-weight="400" font-size="10.6735" transform="matrix(1 0 0 0.999964 270.101 395)">0.5</text><text fill="#7F7F7F" font-family="EB Garamond,EB Garamond_MSFontService,sans-serif" font-weight="400" font-size="10.6735" transform="matrix(1 0 0 0.999964 288.981 395)">0.6</text><text fill="#7F7F7F" font-family="EB Garamond,EB Garamond_MSFontService,sans-serif" font-weight="400" font-size="10.6735" transform="matrix(1 0 0 0.999964 307.86 395)">0.7</text><text fill="#7F7F7F" font-family="EB Garamond,EB Garamond_MSFontService,sans-serif" font-weight="400" font-size="10.6735" transform="matrix(1 0 0 0.999964 326.74 395)">0.8</text><text fill="#7F7F7F" font-family="EB Garamond,EB Garamond_MSFontService,sans-serif" font-weight="400" font-size="10.6735" transform="matrix(1 0 0 0.999964 345.619 395)">0.9</text><path d="M403 161.494C403 160.666 403.672 159.994 404.5 159.994 405.328 159.994 406 160.666 406 161.494 406 162.323 405.328 162.994 404.5 162.994 403.672 162.994 403 162.323 403 161.494Z" stroke="#7030A0" stroke-width="2.00135" stroke-linecap="square" stroke-linejoin="round" stroke-miterlimit="10" fill="#7030A0" fill-rule="evenodd"/></g></svg>